<svg xmlns="http://www.w3.org/2000/svg" viewBox="0 0 150 68.1"><defs><style>.a{fill:#fff;}.b{fill:none;}.c{fill:#ffda00;}.d{fill:#00b716;}.e{fill:#f91700;}</style></defs><title>Ajubba WEB LOGO</title><path class="a" d="M67.1,58.9l-.3-.9H64.7l-.4.9h-1l1.9-4.6h1.1l1.9,4.6ZM65,57.2h1.4l-.7-1.8Z"></path><path class="a" d="M71.9,54.1v4.8H71v-.6c-.2.2-.3.4-.5.5h-.6l-.9-.2a2,2,0,0,1-.6-.7,2,2,0,0,1-.2-.9,2.9,2.9,0,0,1,.2-.9.9.9,0,0,1,.6-.6,1.1,1.1,0,0,1,.8-.3,1.4,1.4,0,0,1,1.2.6V54.1Zm-1.2,3.7a.9.9,0,0,0,.3-.7,1.1,1.1,0,0,0-.3-.7l-.6-.2-.6.2a1.1,1.1,0,0,0-.3.7.9.9,0,0,0,.3.7.6.6,0,0,0,.6.3A.9.9,0,0,0,70.7,57.8Z"></path><path class="a" d="M72.4,55.4h1.1l.8,2.5.8-2.5h1l-1.3,3.5H73.7Z"></path><path class="a" d="M78.9,55.6a1.3,1.3,0,0,1,.7.6,2.9,2.9,0,0,1,.2.9,2,2,0,0,1-.2.9,2.3,2.3,0,0,1-.7.7l-.9.2-1-.2-.7-.7a2,2,0,0,1-.2-.9,2.9,2.9,0,0,1,.2-.9,1.3,1.3,0,0,1,.7-.6,1.6,1.6,0,0,1,1-.2A1.3,1.3,0,0,1,78.9,55.6Zm-1.6.8a1.9,1.9,0,0,0-.2.7,1.4,1.4,0,0,0,.2.7.9.9,0,0,0,.7.3.9.9,0,0,0,.6-.3,1.4,1.4,0,0,0,.2-.7,1.9,1.9,0,0,0-.2-.7l-.6-.2Z"></path><path class="a" d="M82,56.2a.9.9,0,0,0-.6.3.8.8,0,0,0-.2.6,1.4,1.4,0,0,0,.2.7.9.9,0,0,0,.6.3,1,1,0,0,0,.8-.4l.7.4-.6.6-1,.2-.9-.2-.6-.6a3,3,0,0,1-.2-1,2.9,2.9,0,0,1,.2-.9,1.7,1.7,0,0,1,.6-.6,1.6,1.6,0,0,1,1-.2h.8l.7.6-.7.5A.9.9,0,0,0,82,56.2Z"></path><path class="a" d="M86,58.9v-.5a.8.8,0,0,1-.4.4h-.7a1.1,1.1,0,0,1-.8-.3,1.2,1.2,0,0,1-.4-.8.8.8,0,0,1,.4-.7,1.3,1.3,0,0,1,1-.3H86c0-.2,0-.3-.2-.4l-.5-.2a1.9,1.9,0,0,0-1,.3l-.3-.7.7-.3h.8a1.6,1.6,0,0,1,1.1.4,1,1,0,0,1,.4.9v2.3Zm-.2-.9.2-.3v-.3H84.8c-.1,0-.1.1-.1.3a.4.4,0,0,0,.1.3h.4Z"></path><path class="a" d="M89.4,56.2a.9.9,0,0,0-.6.3c-.2.1-.2.3-.2.6a.8.8,0,0,0,.2.7.6.6,0,0,0,.6.3,1.2,1.2,0,0,0,.8-.4l.7.4a1.7,1.7,0,0,1-.6.6l-1,.2-.9-.2a1.7,1.7,0,0,1-.6-.6,1.6,1.6,0,0,1-.2-1,1.5,1.5,0,0,1,.2-.9.9.9,0,0,1,.6-.6,1.5,1.5,0,0,1,.9-.2h.9a1.7,1.7,0,0,1,.6.6l-.6.5A.9.9,0,0,0,89.4,56.2Z"></path><path class="a" d="M91.9,60.2h-.5l-.4-.3.4-.7.4.2a.5.5,0,0,0,.5-.3v-.2l-1.5-3.4H92l.9,2.4.8-2.4h1l-1.5,3.8A1.5,1.5,0,0,1,91.9,60.2Z"></path><path class="a" d="M99.8,57v.8h-.6v1.1h-.9V57.8H96.2v-.7l1.4-2.8h.9L97.2,57h1.1V56h.9v1Z"></path><path class="a" d="M104.1,58.5a1.4,1.4,0,0,1-1.1.4,1.8,1.8,0,0,1-1.5-.7l.5-.7.5.4h.5l.4-.2c0-.1.1-.2.1-.4V55.2h-1.6v-.9h2.6v3.1A1.4,1.4,0,0,1,104.1,58.5Z"></path><path class="a" d="M108.7,55.4v3.5h-1v-.7a1.1,1.1,0,0,1-1.1.7,1.3,1.3,0,0,1-1-.4,1.2,1.2,0,0,1-.3-.9V55.4h1v1.9a.8.8,0,0,0,.2.5.6.6,0,0,0,.5.2.5.5,0,0,0,.5-.3c.2-.1.2-.3.2-.6V55.4Z"></path><path class="a" d="M111.3,56.2h-.8v.2c0,.1,0,.2.1.2l.5.2.6.2a.8.8,0,0,1,.4.4c.2.1.2.3.2.5a.9.9,0,0,1-.4.8,1.5,1.5,0,0,1-1,.3H110l-.7-.4.3-.7.6.4h1a.3.3,0,0,0,.1-.2.2.2,0,0,0-.2-.2l-.5-.2-.6-.2-.4-.3a1.3,1.3,0,0,1-.1-.6.9.9,0,0,1,.4-.8,1.2,1.2,0,0,1,.9-.3h.7l.7.3-.3.7Z"></path><path class="a" d="M115,58.7h-.9a1.1,1.1,0,0,1-.8-.3,1,1,0,0,1-.3-.8V56.2h-.4v-.7h.4v-.9h1v.9h1v.7h-1v1.5c0,.2.1.4.3.4l.5-.2Z"></path><path class="a" d="M116.5,54a.6.6,0,0,1-.4,1l-.4-.2c-.1-.1-.1-.2-.1-.4s0-.3.1-.4l.4-.2A.5.5,0,0,1,116.5,54Zm-.9,1.4h1v3.5h-1Z"></path><path class="a" d="M119.1,56.2a.9.9,0,0,0-.6.3.8.8,0,0,0-.2.6,1.4,1.4,0,0,0,.2.7.9.9,0,0,0,.6.3,1,1,0,0,0,.8-.4l.7.4a1.7,1.7,0,0,1-.6.6l-1,.2-.9-.2-.6-.6a3,3,0,0,1-.2-1,2.9,2.9,0,0,1,.2-.9,1.7,1.7,0,0,1,.6-.6,1.6,1.6,0,0,1,1-.2h.8l.7.6-.7.5A.9.9,0,0,0,119.1,56.2Z"></path><path class="a" d="M123.9,55.8a2.9,2.9,0,0,1,.4,1.4v.2h-2.5l.3.5a.7.7,0,0,0,.6.2h.5l.4-.2.5.5-.6.4-.9.2-.9-.2-.7-.6a3,3,0,0,1-.2-1,2.9,2.9,0,0,1,.2-.9,1.3,1.3,0,0,1,.7-.6c.2-.2.5-.2.9-.2A1.8,1.8,0,0,1,123.9,55.8Zm-.5,1a.5.5,0,0,0-.3-.5l-.5-.2-.5.2a.5.5,0,0,0-.3.5Z"></path><path class="a" d="M129.8,59l-.7-.6a2.1,2.1,0,0,1-1.3.5l-.7-.2a1.3,1.3,0,0,1-.6-.4,1.9,1.9,0,0,1-.2-.7.9.9,0,0,1,.3-.7,1.3,1.3,0,0,1,.7-.5.9.9,0,0,1-.3-.6.6.6,0,0,1-.1-.4,1,1,0,0,1,.3-.8,1.2,1.2,0,0,1,.9-.3h.7l.4.4a.8.8,0,0,1,.2.5.9.9,0,0,1-.3.7l-.8.5a6,6,0,0,0,.8.8l.3-.7.6.5a5.9,5.9,0,0,1-.4.8l.7.6Zm-1.2-1.1a9.3,9.3,0,0,0-1-1l-.3.3a.4.4,0,0,0-.1.3c0,.2,0,.4.2.5l.5.2A1.1,1.1,0,0,0,128.6,57.9Zm-.7-1.9.5-.3a.5.5,0,0,0,.2-.4c0-.1-.1-.2-.1-.3h-.7a.5.5,0,0,0-.2.4A.9.9,0,0,0,127.9,56Z"></path><path class="a" d="M133.6,57.8l.7.2.7-.2a1.1,1.1,0,0,0,.3-.8V54.3h1V57a3,3,0,0,1-.2,1,2.3,2.3,0,0,1-.7.7l-1.1.2-1.1-.2a2.3,2.3,0,0,1-.7-.7,3,3,0,0,1-.2-1V54.3h1V57A1.1,1.1,0,0,0,133.6,57.8Z"></path><path class="a" d="M140.3,55.7a1.8,1.8,0,0,1,.4,1v2.2h-1V57a1.1,1.1,0,0,0-.2-.6H139c-.3,0-.5,0-.6.2a1.4,1.4,0,0,0-.2.6v1.8h-1V55.4h1V56a1.5,1.5,0,0,1,1.2-.7A1.3,1.3,0,0,1,140.3,55.7Z"></path><path class="a" d="M142.4,54c.1.1.1.2.1.4s0,.3-.1.4l-.4.2-.4-.2c-.1-.1-.1-.2-.1-.4s0-.3.1-.4l.4-.2Zm-.9,1.4h1v3.5h-1Z"></path><path class="a" d="M145.6,58.7h-.9a1.1,1.1,0,0,1-.8-.3,1,1,0,0,1-.3-.8V56.2h-.5v-.7h.5v-.9h1v.9h.9v.7h-.9v1.5c0,.2.1.4.3.4l.5-.2Z"></path><path class="a" d="M146.6,60.2h-.5l-.4-.3.4-.7.4.2a.5.5,0,0,0,.5-.3v-.2l-1.4-3.4h1l.9,2.4.8-2.4h1l-1.5,3.8A1.5,1.5,0,0,1,146.6,60.2Z"></path><path class="a" d="M82.3,65.7v.9H78.9v-.7l1.7-1.7.3-.5a.5.5,0,0,0,.2-.4l-.2-.3H79.8l-.6.5-.4-.8a3.4,3.4,0,0,1,1.8-.7l.8.2a1,1,0,0,1,.5.4.7.7,0,0,1,.2.6,1.9,1.9,0,0,1-.2.7l-.6.8-1.1,1Z"></path><path class="a" d="M87.8,62.4a1.2,1.2,0,0,1,.4.8,1.1,1.1,0,0,1-.2.6l-.6.4.7.4a.9.9,0,0,1,.3.7,1.4,1.4,0,0,1-.5,1,2.1,2.1,0,0,1-1.2.3H84.5V62.1h2.1A2.1,2.1,0,0,1,87.8,62.4ZM87,63.8c.1-.1.1-.2.1-.4s0-.3-.1-.4H85.5v1H87Zm.1,1.8a.5.5,0,0,0,0-.8H85.5v1.1h1A.8.8,0,0,0,87.1,65.6Z"></path><path class="a" d="M92.4,63.1v3.5h-1V66a1.3,1.3,0,0,1-1.2.6,1.2,1.2,0,0,1-.9-.3,1.7,1.7,0,0,1-.3-1V63.1h1V65a.7.7,0,0,0,.1.5.6.6,0,0,0,.5.2,1.1,1.1,0,0,0,.6-.2,1.4,1.4,0,0,0,.2-.7V63.1Z"></path><path class="a" d="M94.2,61.7a.8.8,0,0,1,.2.4.7.7,0,0,1-.6.6l-.4-.2c-.1-.1-.1-.2-.1-.4a.6.6,0,0,1,.1-.4h.8Zm-.9,1.4h1v3.5h-1Z"></path><path class="a" d="M95.3,61.8h1v4.8h-1Z"></path><path class="a" d="M100.7,61.8v4.8h-1v-.5a.8.8,0,0,1-.4.4h-.7a1.1,1.1,0,0,1-.8-.2.9.9,0,0,1-.6-.6,3,3,0,0,1-.2-1,2.9,2.9,0,0,1,.2-.9,1.7,1.7,0,0,1,.6-.6l.8-.2a1.3,1.3,0,0,1,1.1.5V61.8Zm-1.2,3.8a1.3,1.3,0,0,0,0-1.4l-.6-.3a.9.9,0,0,0-.7.3,1.3,1.3,0,0,0,0,1.4l.7.2Z"></path><path class="a" d="M105.2,66.6v-.4l-.4.3h-.7a1.1,1.1,0,0,1-.8-.3,1,1,0,0,1-.4-.7,1,1,0,0,1,.4-.8,1.3,1.3,0,0,1,1-.3h.9a.4.4,0,0,0-.2-.4h-.5a1.9,1.9,0,0,0-1,.3l-.3-.7a1.1,1.1,0,0,1,.7-.3h.8a1.6,1.6,0,0,1,1.1.3,1,1,0,0,1,.4.9v2.3Zm-.2-.8a.5.5,0,0,0,.2-.4v-.3H104a.5.5,0,0,0,0,.6h1Z"></path><path class="a" d="M111.8,62.4a1,1,0,0,1,.5.8,1.1,1.1,0,0,1-.2.6l-.6.4.7.4a.8.8,0,0,1,.2.7,1.3,1.3,0,0,1-.4,1,2.3,2.3,0,0,1-1.3.3h-2.1V62.1h2.1A1.6,1.6,0,0,1,111.8,62.4Zm-.7,1.4c.1-.1.1-.2.1-.4s0-.3-.1-.4h-1.5v1h1.5Zm.1,1.8a.5.5,0,0,0,0-.8h-1.6v1.1h1A1.1,1.1,0,0,0,111.2,65.6Z"></path><path class="a" d="M115.9,63.6a1.7,1.7,0,0,1,.5,1.3v.3h-2.5a.5.5,0,0,0,.3.5l.6.2h.4l.4-.3.6.5a1.8,1.8,0,0,1-.7.5h-.8a1.6,1.6,0,0,1-1-.2.9.9,0,0,1-.6-.6,1.5,1.5,0,0,1-.2-.9,1.6,1.6,0,0,1,.2-1l.6-.6,1-.2A1.7,1.7,0,0,1,115.9,63.6Zm-.5,1a1.1,1.1,0,0,0-.2-.6l-.5-.2a1.1,1.1,0,0,0-.6.2l-.3.6Z"></path><path class="a" d="M119.2,66.4l-.5.2h-.4l-.8-.2a1.1,1.1,0,0,1-.3-.8V64h-.5v-.7h.5v-1h1v1h.9V64h-.9v1.4c0,.3.1.4.3.4h.5Z"></path><path class="a" d="M121.9,66.4l-.4.2H121l-.8-.2a1.1,1.1,0,0,1-.3-.8V64h-.5v-.7h.5v-1h1v1h.9V64h-.9v1.4c0,.3.1.4.3.4h.5Z"></path><path class="a" d="M125.2,63.6a1.7,1.7,0,0,1,.5,1.3v.3h-2.5a.5.5,0,0,0,.3.5l.6.2h.4l.5-.3.5.5a1.8,1.8,0,0,1-.7.5H124a1.6,1.6,0,0,1-1-.2,1.7,1.7,0,0,1-.6-.6,2.9,2.9,0,0,1-.2-.9,3,3,0,0,1,.2-1l.6-.6,1-.2A1.5,1.5,0,0,1,125.2,63.6Zm-.5,1c0-.3,0-.4-.2-.6l-.5-.2-.6.2a1.1,1.1,0,0,0-.2.6Z"></path><path class="a" d="M127.8,63.3a.8.8,0,0,1,.7-.2V64h-.2a.9.9,0,0,0-.7.3.6.6,0,0,0-.3.6v1.7h-1V63.1h1v.6A1,1,0,0,1,127.8,63.3Z"></path><path class="a" d="M133.9,66.6l-.4-.9h-2.1l-.3.9H130l2-4.5h1l2,4.5Zm-2.1-1.7h1.4l-.7-1.8Z"></path><path class="a" d="M138.4,63.3l.6.6a3,3,0,0,1,.2,1,2.9,2.9,0,0,1-.2.9,1.7,1.7,0,0,1-.6.6,1.1,1.1,0,0,1-.8.2h-.7l-.5-.4v.5h-1V61.8h1v1.8l.5-.4h.6Zm-.5,2.2a.8.8,0,0,0,.3-.7.7.7,0,0,0-.3-.6.8.8,0,0,0-1.2,0,.7.7,0,0,0-.3.6.8.8,0,0,0,.3.7.8.8,0,0,0,1.2,0Z"></path><path class="a" d="M143.1,63.1v3.5h-1V66a1.1,1.1,0,0,1-1.1.6,1.2,1.2,0,0,1-.9-.3,1.3,1.3,0,0,1-.4-1V63.1h1V65a.8.8,0,0,0,.2.5c.1.2.3.2.5.2l.5-.2a.8.8,0,0,0,.2-.7V63.1Z"></path><path class="a" d="M143.7,67.1h.3a.6.6,0,0,0,.1-.4V63.1h1v3.6a1.1,1.1,0,0,1-1.2,1.2l-.7-.2.2-.7Zm1.3-5.4a.6.6,0,0,1,.1.4c0,.2,0,.3-.1.4l-.4.2-.4-.2a.5.5,0,0,1-.2-.4.8.8,0,0,1,.2-.4h.8Z"></path><path class="a" d="M148,66.6v-.4l-.4.3h-.7a1.6,1.6,0,0,1-.9-.3.9.9,0,0,1-.3-.7.8.8,0,0,1,.4-.8,1.2,1.2,0,0,1,.9-.3h1a.8.8,0,0,0-.2-.4h-.5l-1.1.3-.3-.7.8-.3h.8a1.8,1.8,0,0,1,1.1.3,1.3,1.3,0,0,1,.4.9v2.3Zm-.3-.8c.2-.1.3-.2.3-.4v-.3h-1.2a.5.5,0,0,0,0,.6h.9Z"></path><path class="b" d="M119.3,22.6h-7.5V31h7.9a1.4,1.4,0,0,0,1.1-1.5V24.1a1.5,1.5,0,0,0-.4-1.1A1.4,1.4,0,0,0,119.3,22.6Z"></path><path class="b" d="M97.6,35.4h-8v9.9h7.6a1.3,1.3,0,0,0,1-.4,1.4,1.4,0,0,0,.4-1.1V36.9A1.5,1.5,0,0,0,97.6,35.4Z"></path><path class="b" d="M119.8,35.4h-8v9.9h7.5a1.5,1.5,0,0,0,1.1-.4,1.4,1.4,0,0,0,.4-1.1V36.9A1.5,1.5,0,0,0,119.8,35.4Z"></path><polygon class="b" points="135.7 40.7 142.8 40.7 139 27.5 135.7 40.7"></polygon><path class="b" d="M97.2,22.6H89.6V31h7.9a1.4,1.4,0,0,0,1.1-1.5V24.1a1.5,1.5,0,0,0-.4-1.1A1.3,1.3,0,0,0,97.2,22.6Z"></path><path class="a" d="M36.9,29.6h6.2L36.6,15.4a2.9,2.9,0,0,0-5.1,0L24.9,29.6h12Z"></path><path class="a" d="M41,40.7h6.5l-3.2-7.8Z"></path><path class="a" d="M23.8,32.9l-3.3,7.8H27Z"></path><path class="a" d="M38.6,49.9h9.6A2.7,2.7,0,0,0,50.7,46l-1.2-2.7a4.6,4.6,0,0,1-4.2,2.9H42.6a4.7,4.7,0,0,1-3.9-4.4c0-.1.1-.3.1-.4l4-9.7a.4.4,0,0,1,.1-.3H36.6A2.7,2.7,0,0,1,35,33.1V46.3A4.7,4.7,0,0,1,38.6,49.9Z"></path><path class="a" d="M32.8,33a2.9,2.9,0,0,1-1.3-1.4c-.1-.1-.1-.2-.3-.2h-6a.4.4,0,0,0,.1.3c1.3,3.2,2.5,6.3,3.9,9.5a4.9,4.9,0,0,1,.1,1.2,4.6,4.6,0,0,1-4.5,3.8H22.2a4.6,4.6,0,0,1-3.7-2.9L17.3,46a2.8,2.8,0,0,0,2.6,3.9h9.6c.1-1.5,1.6-3,3.6-3.6V33.4C33.1,33.2,33,33.1,32.8,33Z"></path><path class="a" d="M76.5,44.1a1.4,1.4,0,0,1-.5,1,1.2,1.2,0,0,1-1,.5H68.9a.1.1,0,0,0-.1-.1h-.3a1.4,1.4,0,0,1-1.1-1.4V18H62.8V45.6A4.3,4.3,0,0,0,64.3,49a5,5,0,0,0,3.1,1.3h9.1A4.8,4.8,0,0,0,79.7,49,4.5,4.5,0,0,0,81,45.6V18H76.5Z"></path><path class="a" d="M98.7,18.2H85.1V49.9H98.7a7.9,7.9,0,0,0,3.1-1.5c1-.4,1.4-1.5,1.4-3.1V35.5a2.7,2.7,0,0,0-.5-1.6c-.3-.6-.6-.8-1-.7a1.9,1.9,0,0,0,1-.8,2.4,2.4,0,0,0,.5-1.6V22.7a4.1,4.1,0,0,0-1.3-3.2A4.4,4.4,0,0,0,98.7,18.2Zm-.1,25.6a1.4,1.4,0,0,1-.4,1.1,1.3,1.3,0,0,1-1,.4H89.6V35.4h8a1.5,1.5,0,0,1,1,1.5Zm0-14.3A1.4,1.4,0,0,1,97.5,31H89.6V22.6h7.6a1.3,1.3,0,0,1,1,.4,1.5,1.5,0,0,1,.4,1.1Z"></path><path class="a" d="M120.9,18.2H107.3V49.9h13.6a8.6,8.6,0,0,0,3.1-1.5c.9-.4,1.4-1.5,1.4-3.1V35.5a3.7,3.7,0,0,0-.5-1.6c-.3-.6-.6-.8-1-.7a1.9,1.9,0,0,0,1-.8,3,3,0,0,0,.5-1.6V22.7a4.4,4.4,0,0,0-1.3-3.2A4.4,4.4,0,0,0,120.9,18.2Zm-.1,25.6a1.4,1.4,0,0,1-.4,1.1,1.5,1.5,0,0,1-1.1.4h-7.5V35.4h8a1.5,1.5,0,0,1,1,1.5Zm0-14.3a1.4,1.4,0,0,1-1.1,1.5h-7.9V22.6h7.5a1.4,1.4,0,0,1,1.1.4,1.5,1.5,0,0,1,.4,1.1Z"></path><path class="a" d="M141.3,17.9h-4.5l-8.7,32h5.2l1.5-4.6h8.7l1.3,4.6H150Zm-5.6,22.8L139,27.5l3.8,13.2Z"></path><path class="a" d="M44.4,59.4a27.8,27.8,0,0,1-5.6,1.7A5.2,5.2,0,0,0,34,57.8a5.1,5.1,0,0,0-4.7,3.3,27.7,27.7,0,0,1-22-20.9,5.2,5.2,0,0,0,2.9-4.7,5.1,5.1,0,0,0-3.4-4.8A27.5,27.5,0,0,1,29.3,7,5,5,0,0,0,34,10.2,5.1,5.1,0,0,0,38.8,7a27.3,27.3,0,0,1,13.8,6.8h4.1A30.2,30.2,0,0,0,39,4.1,5.1,5.1,0,0,0,34,0a5.2,5.2,0,0,0-5,4.1A30.4,30.4,0,0,0,3.9,30.6,4.9,4.9,0,0,0,0,35.5a5.2,5.2,0,0,0,4.4,5.1A30.4,30.4,0,0,0,29,64a5.2,5.2,0,0,0,5,4.1A5.1,5.1,0,0,0,39,64a27.2,27.2,0,0,0,6.5-1.9ZM34,1.5a3.7,3.7,0,0,1,3.7,3.6A3.8,3.8,0,0,1,34,8.8a3.7,3.7,0,0,1-3.6-3.7A3.6,3.6,0,0,1,34,1.5ZM1.5,35.5a3.6,3.6,0,0,1,3.6-3.6,3.7,3.7,0,1,1,0,7.3A3.6,3.6,0,0,1,1.5,35.5ZM34,66.6a3.7,3.7,0,0,1-3.6-3.7A3.6,3.6,0,0,1,34,59.3a3.7,3.7,0,0,1,3.7,3.6A3.8,3.8,0,0,1,34,66.6Z"></path><path class="a" d="M47.4,22.5h6.8V49.9a20.2,20.2,0,0,1-3,3.4c-2.2,1.7-4.4,3.1-4.4,3.1l.6,1.6h0l1.1,2.7,1.9-1.1.8-.5.6-.4a31.4,31.4,0,0,0,7-7.1V17.9H47.4Z"></path><circle class="c" cx="5.1" cy="35.5" r="3.7"></circle><path class="d" d="M34,8.8a3.8,3.8,0,0,0,3.7-3.7A3.7,3.7,0,0,0,34,1.5a3.6,3.6,0,0,0-3.6,3.6A3.7,3.7,0,0,0,34,8.8Z"></path><circle class="e" cx="34" cy="62.9" r="3.7" transform="translate(-4.4 2.6) rotate(-4.1)"></circle></svg>