<svg xmlns="http://www.w3.org/2000/svg" viewBox="0 0 196.1668 89.00232"><defs><style>.a{fill:none;}.b{fill:#ffda00;}.c{fill:#00b716;}.d{fill:#f91700;}</style></defs><title>Ajubba BLACK LOGO</title><path d="M87.78632,76.9704l-.46387-1.14673H84.59l-.46387,1.14673h-1.374l2.56348-5.90222h1.374l2.52148,5.90222Zm-2.75781-2.21753h1.86328L85.965,72.45941Z"></path><path d="M94.07636,70.71405V76.9704h-1.29v-.66614a1.60762,1.60762,0,0,1-.60742.53546,1.82482,1.82482,0,0,1-.82618.18128,2.14551,2.14551,0,0,1-1.126-.2909,1.94981,1.94981,0,0,1-.75-.82208,2.93232,2.93232,0,0,1-.00488-2.42835,1.92244,1.92244,0,0,1,.74218-.8095,2.11516,2.11516,0,0,1,1.1045-.28663,1.68639,1.68639,0,0,1,1.46777.71668V70.71405Zm-1.60645,4.9115a1.45656,1.45656,0,0,0,0-1.81287,1.13077,1.13077,0,0,0-1.63574,0,1.42586,1.42586,0,0,0,0,1.81287,1.13077,1.13077,0,0,0,1.63574,0Z"></path><path d="M94.7248,72.44257l1.34082-.00849,1.07031,3.3053,1.0625-3.3053h1.29L97.77753,76.9704h-1.333Z"></path><path d="M103.2287,72.67865a2.06949,2.06949,0,0,1,.85645.80945,2.57044,2.57044,0,0,1,0,2.42413,2.089,2.089,0,0,1-.85645.81787,2.93057,2.93057,0,0,1-2.5459,0,2.08652,2.08652,0,0,1-.85547-.81787,2.57044,2.57044,0,0,1,0-2.42413,2.067,2.067,0,0,1,.85547-.80945,2.96946,2.96946,0,0,1,2.5459,0Zm-2.09082,1.13824a1.44453,1.44453,0,0,0,0,1.80445,1.06336,1.06336,0,0,0,.82227.3457,1.05177,1.05177,0,0,0,.81347-.3457,1.44453,1.44453,0,0,0,0-1.80445,1.05221,1.05221,0,0,0-.81347-.3457A1.0638,1.0638,0,0,0,101.13788,73.81689Z"></path><path d="M107.26288,73.49652a1.03444,1.03444,0,0,0-.7959.33307,1.24353,1.24353,0,0,0-.30859.8811,1.28982,1.28982,0,0,0,.30371.88953.99157.99157,0,0,0,.77637.34149,1.1711,1.1711,0,0,0,1.05371-.53119l.89355.60706a1.922,1.922,0,0,1-.80468.742,2.65714,2.65714,0,0,1-1.21.26142,2.46608,2.46608,0,0,1-1.20605-.28669,2.0261,2.0261,0,0,1-.81348-.80945,2.43386,2.43386,0,0,1-.291-1.20574,2.47605,2.47605,0,0,1,.291-1.21839,2.03919,2.03919,0,0,1,.81739-.81787,2.48165,2.48165,0,0,1,1.21875-.29089,2.58928,2.58928,0,0,1,1.15527.24872,2.03789,2.03789,0,0,1,.80957.704l-.87695.63238A1.24065,1.24065,0,0,0,107.26288,73.49652Z"></path><path d="M112.508,76.9704v-.53119a1.45691,1.45691,0,0,1-.59082.43841,2.14209,2.14209,0,0,1-.834.1518,1.60515,1.60515,0,0,1-1.13867-.39209,1.33363,1.33363,0,0,1-.42187-1.02448,1.20449,1.20449,0,0,1,.45117-.99914,2.04476,2.04476,0,0,1,1.27734-.36676h1.24805V74.1626a.6861.6861,0,0,0-.24024-.56067,1.08343,1.08343,0,0,0-.7041-.19818,2.80232,2.80232,0,0,0-1.34863.3963l-.40527-.89374a5.44432,5.44432,0,0,1,1.01172-.3963,4.0079,4.0079,0,0,1,1.03711-.12647,2.1074,2.1074,0,0,1,1.41308.43,1.518,1.518,0,0,1,.50977,1.19732l.00879,2.95954Zm-.36231-1.06238a.75673.75673,0,0,0,.35352-.48908v-.40472H111.4787a1.01872,1.01872,0,0,0-.56055.12225.43788.43788,0,0,0-.18066.39209.511.511,0,0,0,.18945.41736.79047.79047,0,0,0,.51856.156A1.248,1.248,0,0,0,112.14569,75.908Z"></path><path d="M116.91718,73.49652a1.03442,1.03442,0,0,0-.7959.33307,1.24348,1.24348,0,0,0-.30859.8811,1.28982,1.28982,0,0,0,.30371.88953.99155.99155,0,0,0,.77636.34149,1.17108,1.17108,0,0,0,1.05371-.53119l.89356.60706a1.922,1.922,0,0,1-.80469.742,2.65709,2.65709,0,0,1-1.21.26142,2.46608,2.46608,0,0,1-1.206-.28669,2.026,2.026,0,0,1-.81348-.80945,2.43375,2.43375,0,0,1-.291-1.20574,2.476,2.476,0,0,1,.291-1.21839,2.03923,2.03923,0,0,1,.81738-.81787A2.4817,2.4817,0,0,1,116.842,72.392a2.58929,2.58929,0,0,1,1.15528.24872,2.03789,2.03789,0,0,1,.80957.704l-.877.63238A1.24064,1.24064,0,0,0,116.91718,73.49652Z"></path><path d="M120.18964,78.66516a1.81849,1.81849,0,0,1-1.23145-.43842l.54786-.93591a.92871.92871,0,0,0,.59082.24451.623.623,0,0,0,.59863-.40473l.126-.253-1.87988-4.44354h1.33985l1.18945,3.11975,1.07031-3.11975H123.84l-1.99023,5.04224A1.67878,1.67878,0,0,1,120.18964,78.66516Z"></path><path d="M130.56855,74.56732v1.07086H129.759V76.9704h-1.22265V75.63818h-2.748v-.93591l1.80371-3.63409h1.26465l-1.69433,3.49914h1.374V73.26044H129.759v1.30688Z"></path><path d="M136.16327,76.51507a1.99306,1.99306,0,0,1-1.4541.51435,2.44452,2.44452,0,0,1-1.93164-.91907l.61621-.94434a2.3273,2.3273,0,0,0,.63672.489,1.3664,1.3664,0,0,0,.61133.16864.67374.67374,0,0,0,.52246-.20233.821.821,0,0,0,.18555-.57337v-2.85h-2.03223V71.06818h3.37305v4.01348A1.90977,1.90977,0,0,1,136.16327,76.51507Z"></path><path d="M142.1623,72.43408V76.9704h-1.29v-.801a1.59664,1.59664,0,0,1-1.51758.85163,1.56361,1.56361,0,0,1-1.19336-.468,1.772,1.772,0,0,1-.44238-1.269v-2.85h1.29785V74.913a.94909.94909,0,0,0,.22851.67456.80871.80871,0,0,0,.62305.24451.934.934,0,0,0,.73437-.32879,1.23987,1.23987,0,0,0,.26954-.82636V72.43408Z"></path><path d="M145.54315,73.44171a2.19774,2.19774,0,0,0-.64941-.11383.74794.74794,0,0,0-.37988.08429.27416.27416,0,0,0-.14258.253.31332.31332,0,0,0,.19336.28668,3.72241,3.72241,0,0,0,.63281.22766,6.6763,6.6763,0,0,1,.792.28247,1.476,1.476,0,0,1,.54.41315,1.09368,1.09368,0,0,1,.22754.72089,1.22139,1.22139,0,0,1-.51855,1.04974,2.209,2.209,0,0,1-1.32813.37525,3.49068,3.49068,0,0,1-1.07031-.16443,2.75548,2.75548,0,0,1-.89453-.468l.42187-.87689a2.65175,2.65175,0,0,0,.77149.41736,2.4657,2.4657,0,0,0,.80566.14758.8429.8429,0,0,0,.417-.08856.28632.28632,0,0,0,.15625-.26563.33633.33633,0,0,0-.19824-.30353,3.31945,3.31945,0,0,0-.63672-.23608,6.37512,6.37512,0,0,1-.77148-.26984,1.3782,1.3782,0,0,1-.52735-.40893,1.10888,1.10888,0,0,1-.21875-.71246,1.22192,1.22192,0,0,1,.50586-1.04554,2.11,2.11,0,0,1,1.28125-.371,3.40838,3.40838,0,0,1,.92774.13074,3.11181,3.11181,0,0,1,.84375.37518l-.44727.88532A3.78974,3.78974,0,0,0,145.54315,73.44171Z"></path><path d="M150.43378,76.71747a2.12836,2.12836,0,0,1-.56055.23187,2.45606,2.45606,0,0,1-.62011.08008,1.4636,1.4636,0,0,1-1.02832-.36255,1.33308,1.33308,0,0,1-.39649-1.03711V73.53021h-.63184v-.89374h.63184V71.38855h1.29v1.24792h1.23145v.90223h-1.23145v1.87182q0,.52285.41309.52277a1.45965,1.45965,0,0,0,.63281-.16864Z"></path><path d="M152.36835,70.62128a.78839.78839,0,0,1,0,1.04553.68164.68164,0,0,1-.50977.20239.66716.66716,0,0,1-.50195-.2066.78285.78285,0,0,1,0-1.04132.67459.67459,0,0,1,.50195-.2024A.68165.68165,0,0,1,152.36835,70.62128Zm-1.15039,1.8128h1.29883V76.9704H151.218Z"></path><path d="M155.77851,73.49652a1.03442,1.03442,0,0,0-.7959.33307,1.24349,1.24349,0,0,0-.3086.8811,1.28987,1.28987,0,0,0,.30371.88953.99157.99157,0,0,0,.77637.34149,1.1711,1.1711,0,0,0,1.05371-.53119l.89356.60706a1.9221,1.9221,0,0,1-.80469.742,2.65709,2.65709,0,0,1-1.21.26142,2.46612,2.46612,0,0,1-1.20606-.28669,2.02608,2.02608,0,0,1-.81347-.80945,2.43375,2.43375,0,0,1-.291-1.20574,2.476,2.476,0,0,1,.291-1.21839,2.03923,2.03923,0,0,1,.81738-.81787,2.48165,2.48165,0,0,1,1.21875-.29089,2.58925,2.58925,0,0,1,1.15527.24872,2.03776,2.03776,0,0,1,.80957.704l-.87695.63238A1.24064,1.24064,0,0,0,155.77851,73.49652Z"></path><path d="M161.98065,73.02435a2.54314,2.54314,0,0,1,.56836,1.76221c0,.13489-.00293.239-.00781.312h-3.25488a1.15321,1.15321,0,0,0,1.17187.91058,1.58819,1.58819,0,0,0,.61524-.12225,1.61893,1.61893,0,0,0,.53125-.35834l.68359.69141a2.29964,2.29964,0,0,1-.83887.59442,2.82422,2.82422,0,0,1-1.10058.20661,2.61208,2.61208,0,0,1-1.25195-.28669,2.004,2.004,0,0,1-.82618-.80945,2.6538,2.6538,0,0,1,.00391-2.42413,2.06086,2.06086,0,0,1,.82617-.81787,2.48641,2.48641,0,0,1,1.21387-.29089A2.12648,2.12648,0,0,1,161.98065,73.02435Zm-.65332,1.30689a1.03,1.03,0,0,0-.28711-.71668.96878.96878,0,0,0-.71679-.26983.98809.98809,0,0,0-.7041.26562,1.2339,1.2339,0,0,0-.3584.72089Z"></path><path d="M169.75019,77.19806l-.86036-.8432a2.54654,2.54654,0,0,1-1.71093.67456,2.24844,2.24844,0,0,1-1.00391-.21924,1.75125,1.75125,0,0,1-.7041-.60706,1.55478,1.55478,0,0,1-.25684-.87689,1.36309,1.36309,0,0,1,.31641-.92328,3.13791,3.13791,0,0,1,.88965-.67877,3.04888,3.04888,0,0,1-.39258-.68719,1.7621,1.7621,0,0,1-.12207-.6366,1.26358,1.26358,0,0,1,.44629-1.00763,1.76513,1.76513,0,0,1,1.18945-.38361,2.05914,2.05914,0,0,1,.84277.16443,1.35235,1.35235,0,0,1,.57813.45954,1.14708,1.14708,0,0,1,.20605.6745,1.2283,1.2283,0,0,1-.36621.91064,4.11336,4.11336,0,0,1-1.0332.69983q.43066.48907,1.02051,1.06244a4.25311,4.25311,0,0,0,.44629-.98657l.82715.61554a5.33744,5.33744,0,0,1-.55664,1.06237q.24462.24473.90234.86853Zm-1.543-1.50928q-.76758-.7672-1.27344-1.32379a1.92778,1.92778,0,0,0-.48047.40051.72144.72144,0,0,0-.16894.468.77725.77725,0,0,0,.2705.61554.98562.98562,0,0,0,.67383.23608A1.50754,1.50754,0,0,0,168.20722,75.68878Zm-.93555-2.39465a2.8966,2.8966,0,0,0,.64844-.45111.71289.71289,0,0,0,.22851-.527.50236.50236,0,0,0-.165-.392.61211.61211,0,0,0-.42578-.14758.61962.61962,0,0,0-.459.17285.61022.61022,0,0,0-.17285.45111A1.652,1.652,0,0,0,167.27167,73.29413Z"></path><path d="M174.67792,75.53278a1.27863,1.27863,0,0,0,.957.36676,1.22048,1.22048,0,0,0,.92774-.36255,1.39461,1.39461,0,0,0,.3457-1.00336V71.06818h1.332v3.46545a2.73494,2.73494,0,0,1-.31543,1.34485,2.151,2.151,0,0,1-.90723.87689,2.969,2.969,0,0,1-1.39062.3078,3.02411,3.02411,0,0,1-1.40039-.3078,2.16869,2.16869,0,0,1-.919-.87689,2.6944,2.6944,0,0,1-.32031-1.34485V71.06818h1.332v3.46545A1.37089,1.37089,0,0,0,174.67792,75.53278Z"></path><path d="M183.49042,72.85571a1.75845,1.75845,0,0,1,.4502,1.26477V76.9704h-1.29786V74.49988a.936.936,0,0,0-.24023-.67877.86628.86628,0,0,0-.65332-.24872.969.969,0,0,0-.75879.33307,1.2308,1.2308,0,0,0-.27832.8305V76.9704h-1.29883V72.43408h1.29883v.7926a1.69432,1.69432,0,0,1,1.56836-.84314A1.59518,1.59518,0,0,1,183.49042,72.85571Z"></path><path d="M186.2121,70.62128a.78839.78839,0,0,1,0,1.04553.68164.68164,0,0,1-.50977.20239.66716.66716,0,0,1-.50195-.2066.78285.78285,0,0,1,0-1.04132.67459.67459,0,0,1,.50195-.2024A.68165.68165,0,0,1,186.2121,70.62128Zm-1.15039,1.8128h1.29883V76.9704h-1.29883Z"></path><path d="M190.4162,76.71747a2.12822,2.12822,0,0,1-.56055.23187,2.45594,2.45594,0,0,1-.62011.08008,1.4636,1.4636,0,0,1-1.02832-.36255,1.33308,1.33308,0,0,1-.39649-1.03711V73.53021h-.63183v-.89374h.63183V71.38855h1.29v1.24792h1.23145v.90223h-1.23145v1.87182q0,.52285.41309.52277a1.45965,1.45965,0,0,0,.63281-.16864Z"></path><path d="M191.74042,78.66516a1.81849,1.81849,0,0,1-1.23145-.43842l.54786-.93591a.92871.92871,0,0,0,.59082.24451.623.623,0,0,0,.59863-.40473l.126-.253-1.87989-4.44354h1.33985l1.18945,3.11975,1.07031-3.11975h1.29883l-1.99023,5.04224A1.67878,1.67878,0,0,1,191.74042,78.66516Z"></path><path d="M107.61054,85.97552v1.113H103.175v-.91907l2.18359-2.25128a3.19646,3.19646,0,0,0,.46875-.57757.99284.99284,0,0,0,.17286-.49329.50639.50639,0,0,0-.21582-.4342.99218.99218,0,0,0-.59375-.156,1.97417,1.97417,0,0,0-.80957.194,3.50334,3.50334,0,0,0-.835.53961l-.52246-.99493a3.91924,3.91924,0,0,1,2.36035-.86847,2.702,2.702,0,0,1,1.0459.18969,1.64166,1.64166,0,0,1,.708.53119,1.30027,1.30027,0,0,1,.25293.79682,1.77857,1.77857,0,0,1-.29492.92749,6.22693,6.22693,0,0,1-.835,1.03711l-1.35742,1.366Z"></path><path d="M114.76874,81.58258a1.2502,1.2502,0,0,1,.56543,1.07922,1.29488,1.29488,0,0,1-.27441.82215,1.36546,1.36546,0,0,1-.7461.47638,1.444,1.444,0,0,1,1.23047,1.49243A1.40386,1.40386,0,0,1,114.9455,86.65a2.69777,2.69777,0,0,1-1.62695.43848h-2.80762V81.18628h2.71484A2.6465,2.6465,0,0,1,114.76874,81.58258Zm-1.01562,1.80859a.58881.58881,0,0,0,.21484-.4848.56811.56811,0,0,0-.21484-.47223.90832.90832,0,0,0-.59473-.16015H111.843v1.29h1.31543A.9251.9251,0,0,0,113.75312,83.39117Zm.14746,2.41993a.60869.60869,0,0,0,.26953-.527.58306.58306,0,0,0-.26953-.50592,1.25663,1.25663,0,0,0-.74219-.17707H111.843v1.39966h1.31543A1.27482,1.27482,0,0,0,113.90058,85.8111Z"></path><path d="M120.79706,82.55218V87.0885h-1.29v-.801a1.59664,1.59664,0,0,1-1.51758.85163,1.56364,1.56364,0,0,1-1.19336-.468,1.772,1.772,0,0,1-.44238-1.269v-2.85h1.29785v2.47895a.94909.94909,0,0,0,.22852.67456.80872.80872,0,0,0,.623.2445.934.934,0,0,0,.73437-.32879,1.23985,1.23985,0,0,0,.26953-.82636V82.55218Z"></path><path d="M123.20429,80.73938a.78839.78839,0,0,1,0,1.04553.68164.68164,0,0,1-.50977.20239.66711.66711,0,0,1-.50195-.2066.78285.78285,0,0,1,0-1.04132.67457.67457,0,0,1,.50195-.20239A.68164.68164,0,0,1,123.20429,80.73938Zm-1.15039,1.8128h1.29882V87.0885H122.0539Z"></path><path d="M124.64179,80.83215h1.29883V87.0885h-1.29883Z"></path><path d="M131.716,80.83215V87.0885h-1.29v-.66614a1.60753,1.60753,0,0,1-.60742.53546,1.82482,1.82482,0,0,1-.82618.18128,2.14551,2.14551,0,0,1-1.126-.2909,1.94962,1.94962,0,0,1-.75-.82208,2.93235,2.93235,0,0,1-.00489-2.42834,1.92255,1.92255,0,0,1,.74219-.80951,2.11512,2.11512,0,0,1,1.10449-.28662,1.68638,1.68638,0,0,1,1.46778.71667V80.83215Zm-1.60645,4.9115a1.45654,1.45654,0,0,0,0-1.81286,1.13075,1.13075,0,0,0-1.63574,0,1.42585,1.42585,0,0,0,0,1.81286,1.13075,1.13075,0,0,0,1.63574,0Z"></path><path d="M137.61835,87.0885v-.53119a1.457,1.457,0,0,1-.59082.43842,2.14226,2.14226,0,0,1-.834.15179,1.60516,1.60516,0,0,1-1.13868-.39209A1.33361,1.33361,0,0,1,134.633,85.731a1.2045,1.2045,0,0,1,.45117-.99915,2.04483,2.04483,0,0,1,1.27734-.36676h1.248V84.2807a.68612.68612,0,0,0-.24023-.56067,1.08346,1.08346,0,0,0-.70411-.19818,2.80232,2.80232,0,0,0-1.34863.3963l-.40527-.89374a5.44432,5.44432,0,0,1,1.01172-.3963,4.00791,4.00791,0,0,1,1.03711-.12646,2.10745,2.10745,0,0,1,1.41308.43A1.518,1.518,0,0,1,138.883,84.129l.00879,2.95953Zm-.3623-1.06238a.75673.75673,0,0,0,.35351-.48907v-.40473H136.589a1.01865,1.01865,0,0,0-.56054.12226.43785.43785,0,0,0-.18067.39209.511.511,0,0,0,.18946.41736.79048.79048,0,0,0,.51855.156A1.248,1.248,0,0,0,137.256,86.02612Z"></path><path d="M146.26874,81.58258a1.2502,1.2502,0,0,1,.56543,1.07922,1.29488,1.29488,0,0,1-.27441.82215,1.36546,1.36546,0,0,1-.7461.47638,1.444,1.444,0,0,1,1.23047,1.49243A1.40386,1.40386,0,0,1,146.4455,86.65a2.69777,2.69777,0,0,1-1.627.43848h-2.80762V81.18628h2.71484A2.6465,2.6465,0,0,1,146.26874,81.58258Zm-1.01562,1.80859a.58881.58881,0,0,0,.21484-.4848.56811.56811,0,0,0-.21484-.47223.90832.90832,0,0,0-.59473-.16015H143.343v1.29h1.31543A.9251.9251,0,0,0,145.25312,83.39117Zm.14746,2.41993a.60869.60869,0,0,0,.26953-.527.58306.58306,0,0,0-.26953-.50592,1.25663,1.25663,0,0,0-.74219-.17707H143.343v1.39966h1.31543A1.27482,1.27482,0,0,0,145.40058,85.8111Z"></path><path d="M151.60272,83.14246a2.54311,2.54311,0,0,1,.56836,1.7622c0,.13489-.00293.239-.00781.312h-3.25488a1.15323,1.15323,0,0,0,1.17187.91059,1.588,1.588,0,0,0,.61524-.12226,1.6189,1.6189,0,0,0,.53125-.35833l.68359.6914a2.29964,2.29964,0,0,1-.83887.59442,2.82422,2.82422,0,0,1-1.10058.20661,2.61219,2.61219,0,0,1-1.25195-.28668,2.004,2.004,0,0,1-.82618-.80945,2.65382,2.65382,0,0,1,.00391-2.42414,2.06093,2.06093,0,0,1,.82617-.81787,2.48641,2.48641,0,0,1,1.21387-.29089A2.12645,2.12645,0,0,1,151.60272,83.14246Zm-.65332,1.30688a1.03006,1.03006,0,0,0-.2871-.71667.96879.96879,0,0,0-.7168-.26984.98809.98809,0,0,0-.7041.26562,1.23393,1.23393,0,0,0-.3584.72089Z"></path><path d="M155.83026,86.83557a2.12748,2.12748,0,0,1-.56054.23187,2.45562,2.45562,0,0,1-.62012.08008,1.4636,1.4636,0,0,1-1.02832-.36255,1.33307,1.33307,0,0,1-.39648-1.03711V83.64831H152.593v-.89373h.63184V81.50665h1.29v1.24793h1.23145v.90222h-1.23145v1.87182q0,.52287.41309.52277a1.45961,1.45961,0,0,0,.63281-.16864Z"></path><path d="M159.42206,86.83557a2.12755,2.12755,0,0,1-.56055.23187,2.45555,2.45555,0,0,1-.62011.08008,1.4636,1.4636,0,0,1-1.02832-.36255,1.33308,1.33308,0,0,1-.39649-1.03711V83.64831h-.63183v-.89373h.63183V81.50665h1.29v1.24793h1.23145v.90222h-1.23145v1.87182q0,.52287.41309.52277a1.45965,1.45965,0,0,0,.63281-.16864Z"></path><path d="M163.78632,83.14246a2.54316,2.54316,0,0,1,.56836,1.7622c0,.13489-.00293.239-.00781.312H161.092a1.15325,1.15325,0,0,0,1.17188.91059,1.588,1.588,0,0,0,.61523-.12226,1.61869,1.61869,0,0,0,.53125-.35833l.6836.6914a2.29973,2.29973,0,0,1-.83887.59442,2.82427,2.82427,0,0,1-1.10059.20661,2.61219,2.61219,0,0,1-1.25195-.28668,2.00407,2.00407,0,0,1-.82617-.80945,2.65378,2.65378,0,0,1,.0039-2.42414,2.06089,2.06089,0,0,1,.82618-.81787,2.48637,2.48637,0,0,1,1.21386-.29089A2.12646,2.12646,0,0,1,163.78632,83.14246Zm-.65332,1.30688a1.03006,1.03006,0,0,0-.28711-.71667.96879.96879,0,0,0-.7168-.26984.98811.98811,0,0,0-.7041.26562,1.23393,1.23393,0,0,0-.3584.72089Z"></path><path d="M167.1203,82.72925a1.79957,1.79957,0,0,1,.88477-.2276v1.22259a1.79137,1.79137,0,0,0-.20215-.00842,1.33914,1.33914,0,0,0-.94824.32458,1.12216,1.12216,0,0,0-.34961.86426V87.0885h-1.29883V82.55218h1.29883v.81794A1.64919,1.64919,0,0,1,167.1203,82.72925Z"></path><path d="M175.07147,87.0885l-.46386-1.14673h-2.73242l-.46387,1.14673h-1.374l2.56347-5.90222h1.374l2.52148,5.90222ZM172.31366,84.871h1.86328l-.92675-2.29346Z"></path><path d="M180.97772,82.801a1.94935,1.94935,0,0,1,.75.82209,2.703,2.703,0,0,1,.26563,1.22259,2.62827,2.62827,0,0,1-.26172,1.20154,1.92844,1.92844,0,0,1-.7373.80524,2.10909,2.10909,0,0,1-1.10938.28668,1.8709,1.8709,0,0,1-.83887-.18128,1.68275,1.68275,0,0,1-.61914-.527v.65765h-1.29882V80.83215h1.29882v2.38617a1.61639,1.61639,0,0,1,.61133-.527,1.82933,1.82933,0,0,1,.82227-.18127A2.13034,2.13034,0,0,1,180.97772,82.801Zm-.61132,2.90894a1.46215,1.46215,0,0,0,0-1.80438,1.116,1.116,0,0,0-1.62305,0,1.45039,1.45039,0,0,0,0,1.80859,1.05017,1.05017,0,0,0,.81348.3457A1.03488,1.03488,0,0,0,180.3664,85.7099Z"></path><path d="M187.1623,82.55218V87.0885h-1.29v-.801a1.59664,1.59664,0,0,1-1.51758.85163,1.56361,1.56361,0,0,1-1.19336-.468,1.772,1.772,0,0,1-.44238-1.269v-2.85h1.29785v2.47895a.94913.94913,0,0,0,.22851.67456.80874.80874,0,0,0,.62305.2445.934.934,0,0,0,.73437-.32879,1.23985,1.23985,0,0,0,.26954-.82636V82.55218Z"></path><path d="M187.90448,87.72089a.45692.45692,0,0,0,.39649-.16022.76871.76871,0,0,0,.13476-.489V82.55218h1.29V87.274a1.479,1.479,0,0,1-.4043,1.10034,1.51459,1.51459,0,0,1-1.11328.40051,2.3525,2.3525,0,0,1-.93554-.17706l.26953-.94434A1.51327,1.51327,0,0,0,187.90448,87.72089Zm1.665-6.98151a.78839.78839,0,0,1,0,1.04553.68162.68162,0,0,1-.50976.20239.66714.66714,0,0,1-.502-.2066.78285.78285,0,0,1,0-1.04132.67461.67461,0,0,1,.502-.20239A.68162.68162,0,0,1,189.56952,80.73938Z"></path><path d="M193.56171,87.0885v-.53119a1.457,1.457,0,0,1-.59082.43842,2.14227,2.14227,0,0,1-.834.15179,1.60515,1.60515,0,0,1-1.13867-.39209,1.33361,1.33361,0,0,1-.42187-1.02447,1.2045,1.2045,0,0,1,.45117-.99915,2.04483,2.04483,0,0,1,1.27734-.36676h1.24805V84.2807a.68612.68612,0,0,0-.24023-.56067,1.08348,1.08348,0,0,0-.70411-.19818,2.80232,2.80232,0,0,0-1.34863.3963l-.40527-.89374a5.44432,5.44432,0,0,1,1.01172-.3963,4.00791,4.00791,0,0,1,1.03711-.12646,2.10745,2.10745,0,0,1,1.41308.43,1.518,1.518,0,0,1,.50977,1.19733l.00879,2.95953Zm-.36231-1.06238a.75671.75671,0,0,0,.35352-.48907v-.40473h-1.02051a1.01865,1.01865,0,0,0-.56054.12226.43785.43785,0,0,0-.18067.39209.511.511,0,0,0,.18945.41736.79052.79052,0,0,0,.51856.156A1.2479,1.2479,0,0,0,193.1994,86.02612Z"></path><path class="a" d="M156.07856,29.5006h-9.911V40.525H156.524a1.76935,1.76935,0,0,0,1.44756-1.94875v-7.0712a2.04233,2.04233,0,0,0-.52873-1.41988A1.75688,1.75688,0,0,0,156.07856,29.5006Z"></path><path class="a" d="M127.62744,46.26005h-10.4679V59.289h9.911a1.82234,1.82234,0,0,0,1.33633-.55681,1.88958,1.88958,0,0,0,.55667-1.39194V48.20879A1.97052,1.97052,0,0,0,127.62744,46.26005Z"></path><path class="a" d="M156.6355,46.26005H146.16759V59.289h9.911a1.82234,1.82234,0,0,0,1.33633-.55681,1.88958,1.88958,0,0,0,.55667-1.39194V48.20879A1.97052,1.97052,0,0,0,156.6355,46.26005Z"></path><polygon class="a" points="177.403 53.276 186.701 53.276 181.802 36.015 177.403 53.276"></polygon><path class="a" d="M127.0705,29.5006h-9.911V40.525H127.516a1.76934,1.76934,0,0,0,1.44755-1.94875v-7.0712a2.04233,2.04233,0,0,0-.52873-1.41988A1.75687,1.75687,0,0,0,127.0705,29.5006Z"></path><path d="M48.31184,38.6681q4.0428-.00918,8.08562-.00759l-8.5757-18.484a3.66053,3.66053,0,0,0-6.6412,0l-8.5757,18.484q4.03673.00019,8.07335.00759a.89187.89187,0,0,0,.2173-.02249h7.19926A.89045.89045,0,0,0,48.31184,38.6681Z"></path><path d="M53.67438,53.18569h8.46577c-1.40568-3.37448-2.79652-6.71357-4.23373-10.16375C56.46638,46.48037,55.0757,49.82039,53.67438,53.18569Z"></path><path d="M31.0828,43.02327c-1.43924,3.4563-2.83019,6.79686-4.23211,10.16362H35.318C33.90986,49.80775,32.51648,46.46387,31.0828,43.02327Z"></path><path d="M50.4364,65.30232H63.02428a3.66053,3.66053,0,0,0,3.32057-5.20109L64.74276,56.648a6.02811,6.02811,0,0,1-5.53321,3.81965,28.30765,28.30765,0,0,1-3.46635-.08927,6.011,6.011,0,0,1-5.09775-5.6774,1.4931,1.4931,0,0,1,.11709-.58128q2.57041-6.31024,5.15289-12.61542c.04962-.12148.09143-.246.14775-.39848H47.90511A3.702,3.702,0,0,1,45.72,43.28417V60.58858A6.15384,6.15384,0,0,1,50.4364,65.30232Z"></path><path d="M42.93609,43.12305a3.37794,3.37794,0,0,1-1.7376-1.77671.35761.35761,0,0,0-.37809-.26623q-3.87721.01057-7.75446.00586a1.31011,1.31011,0,0,0-.15976.02474c.0468.13212.08465.25559.13351.37453,1.695,4.12726,3.37984,8.25892,5.1,12.3758a2.78253,2.78253,0,0,1,.11558,1.65072,6.05551,6.05551,0,0,1-5.85884,4.95575,28.21841,28.21841,0,0,1-3.42634-.08329,5.96573,5.96573,0,0,1-4.72268-3.71l-1.58991,3.427a3.66051,3.66051,0,0,0,3.32056,5.20109H38.60756c.14412-2.00143,2.08632-3.96255,4.67575-4.70841v-.42323q0-8.23909.00675-16.47832A.51691.51691,0,0,0,42.93609,43.12305Z"></path><path d="M100.01079,57.61857a2.01355,2.01355,0,0,1-.55693,1.39194,1.801,1.801,0,0,1-1.392.61255H90.09983a.17926.17926,0,0,0-.16711-.11136h-.38956a1.823,1.823,0,0,1-1.39195-1.89313V23.48726H82.19335v36.1358a5.688,5.688,0,0,0,1.89327,4.39868,5.88116,5.88116,0,0,0,4.00871,1.726h11.91546a5.99055,5.99055,0,0,0,5.9576-6.1247V23.48726h-5.9576Z"></path><path d="M129.075,23.82134H111.31343l.05562,41.481H129.075q1.00224,0,4.12021-1.94874,1.78137-.94617,1.78177-4.176V46.427a4.4838,4.4838,0,0,0-.61255-2.08791q-.61308-1.14055-1.33633-.97444a2.06626,2.06626,0,0,0,1.33633-1.05786,3.62876,3.62876,0,0,0,.61255-2.00449V29.66771a5.52818,5.52818,0,0,0-1.75383-4.176A5.81451,5.81451,0,0,0,129.075,23.82134Zm-.1115,33.51889a1.88958,1.88958,0,0,1-.55667,1.39194,1.82234,1.82234,0,0,1-1.33633.55681h-9.911V46.26005h10.4679a1.97052,1.97052,0,0,1,1.33606,1.94874Zm0-18.76394A1.76934,1.76934,0,0,1,127.516,40.525H117.15954V29.5006h9.911a1.75687,1.75687,0,0,1,1.36427.58461,2.04233,2.04233,0,0,1,.52873,1.41988Z"></path><path d="M158.083,23.82134H140.32149l.05562,41.481H158.083q1.00226,0,4.12021-1.94874,1.78137-.94617,1.78177-4.176V46.427a4.4838,4.4838,0,0,0-.61255-2.08791q-.61308-1.14055-1.33632-.97444a2.06625,2.06625,0,0,0,1.33632-1.05786,3.62876,3.62876,0,0,0,.61255-2.00449V29.66771a5.52818,5.52818,0,0,0-1.75383-4.176A5.81449,5.81449,0,0,0,158.083,23.82134Zm-.11149,33.51889a1.88958,1.88958,0,0,1-.55667,1.39194,1.82234,1.82234,0,0,1-1.33633.55681h-9.911V46.26005H156.6355a1.97052,1.97052,0,0,1,1.33606,1.94874Zm0-18.76394A1.76935,1.76935,0,0,1,156.524,40.525H146.16759V29.5006h9.911a1.75688,1.75688,0,0,1,1.36427.58461,2.04233,2.04233,0,0,1,.52873,1.41988Z"></path><path d="M184.80828,23.37589h-5.84637L167.54778,65.30232h6.737l2.00449-6.01334h11.4144l1.72589,6.01334h6.73725Zm-7.40542,29.89974,4.39882-17.2605,4.8996,17.2605Z"></path><path d="M58.07861,77.72363a35.627,35.627,0,0,1-7.34046,2.12516,6.70142,6.70142,0,0,0-12.47422.00067,35.99845,35.99845,0,0,1-28.74449-27.3,6.70155,6.70155,0,0,0-.64365-12.41971,35.974,35.974,0,0,1,29.38814-30.977,6.70145,6.70145,0,0,0,12.474.00133A35.80932,35.80932,0,0,1,68.7377,18.05653h5.35559A39.68715,39.68715,0,0,0,51.06372,5.33786a6.70309,6.70309,0,0,0-13.12559.002,39.79155,39.79155,0,0,0-32.88386,34.632A6.70218,6.70218,0,0,0,5.735,53.10028,39.81692,39.81692,0,0,0,37.93813,83.66233a6.70309,6.70309,0,0,0,13.12612-.00027A39.41311,39.41311,0,0,0,59.54539,81.245ZM44.50116,1.9248a4.77687,4.77687,0,1,1-4.77687,4.77693A4.77694,4.77694,0,0,1,44.50116,1.9248ZM1.92486,46.46893A4.7769,4.7769,0,1,1,6.7018,51.24586,4.777,4.777,0,0,1,1.92486,46.46893Zm42.5763,40.60846a4.77694,4.77694,0,1,1,4.7769-4.77693A4.77692,4.77692,0,0,1,44.50116,87.07739Z"></path><path d="M62.0096,29.4543h8.88164v35.843a19.8671,19.8671,0,0,1-3.9519,4.36356c-2.9007,2.29706-5.78793,4.10172-5.78793,4.10172l.85819,2.06037h0l1.47632,3.54425q1.22892-.67176,2.40467-1.4256c.35344-.227.70163-.46115,1.04728-.69877q.37968-.261.75305-.53046a40.03783,40.03783,0,0,0,9.21353-9.28684V23.44109H62.0096Z"></path><circle class="b" cx="6.70178" cy="46.46893" r="4.77693"></circle><path class="c" d="M44.50116,11.47853a4.77687,4.77687,0,1,0-4.77687-4.7768A4.77683,4.77683,0,0,0,44.50116,11.47853Z"></path><circle class="d" cx="44.50117" cy="82.30046" r="4.77688" transform="translate(-5.72228 3.36172) rotate(-4.06507)"></circle></svg>