<svg xmlns="http://www.w3.org/2000/svg" xmlns:xlink="http://www.w3.org/1999/xlink" viewBox="0 0 154.39 89.94"><defs><style>.a,.b{fill:#fff;}.a{fill-rule:evenodd;}.c{fill:url(#a);}.d{fill:url(#b);}.e{fill:url(#c);}.f{fill:url(#d);}.g{fill:url(#e);}.h{fill:url(#f);}</style><linearGradient id="a" x1="4.17" y1="33.69" x2="45.43" y2="14.88" gradientUnits="userSpaceOnUse"><stop offset="0" stop-color="#fdc92a"></stop><stop offset="0.19" stop-color="#f5a229"></stop><stop offset="0.45" stop-color="#eb7128"></stop><stop offset="0.69" stop-color="#e34e27"></stop><stop offset="0.88" stop-color="#df3926"></stop><stop offset="1" stop-color="#dd3126"></stop></linearGradient><linearGradient id="b" x1="11.17" y1="54.43" x2="48.53" y2="36.69" gradientUnits="userSpaceOnUse"><stop offset="0.24" stop-color="#68bd4f"></stop><stop offset="1" stop-color="#f99b1c"></stop></linearGradient><linearGradient id="c" x1="20.28" y1="78.76" x2="41.92" y2="59.82" gradientUnits="userSpaceOnUse"><stop offset="0" stop-color="#319d47"></stop><stop offset="1" stop-color="#ec2027"></stop></linearGradient><linearGradient id="d" x1="1.76" y1="20.87" x2="53.73" y2="41.21" gradientUnits="userSpaceOnUse"><stop offset="0" stop-color="#f8ed39"></stop><stop offset="1" stop-color="#fdc82b"></stop></linearGradient><linearGradient id="e" x1="10.18" y1="45.07" x2="48.09" y2="61.64" gradientUnits="userSpaceOnUse"><stop offset="0.01" stop-color="#bad645"></stop><stop offset="1" stop-color="#68bd4f"></stop></linearGradient><linearGradient id="f" x1="15.48" y1="79.61" x2="46.05" y2="79.61" xlink:href="#e"></linearGradient></defs><title>HOPE2rybe Logo</title><path class="a" d="M86.28,70.42a.18.18,0,0,0,.18.19H89.7a.18.18,0,0,0,.19-.19V62a5.45,5.45,0,0,1,5.49-5.48H96a.19.19,0,0,0,.18-.19V53.11a.18.18,0,0,0-.18-.18h-.59a9.1,9.1,0,0,0-9,8A8.42,8.42,0,0,0,86.28,62v8.4Z"></path><path class="a" d="M125,52.77a9.1,9.1,0,0,0-2.37.62.18.18,0,0,0-.12.17v3.71a.18.18,0,0,0,.11.17.19.19,0,0,0,.19,0,5.58,5.58,0,0,1,4.22-1h.07a5.49,5.49,0,0,1-1.88,10.82h-.08a5.5,5.5,0,0,1-4.51-5.4V48a.18.18,0,0,0-.18-.18h-3.24A.18.18,0,0,0,117,48V61.8a9.08,9.08,0,0,0,8,9,9.08,9.08,0,0,0,2.25,0,9.09,9.09,0,0,0,0-18,9.08,9.08,0,0,0-2.25,0Z"></path><path class="a" d="M106.36,65.06l-5.33-12a.17.17,0,0,0-.16-.11H97.3a.18.18,0,0,0-.16.09.17.17,0,0,0,0,.17l7.41,16.54a.28.28,0,0,1,0,.18l-2.48,5.48a.17.17,0,0,0,0,.17.18.18,0,0,0,.16.09h3.57a.18.18,0,0,0,.17-.11l10.08-22.35a.15.15,0,0,0,0-.17.16.16,0,0,0-.15-.09h-3.57a.18.18,0,0,0-.17.11l-5.4,12a.22.22,0,0,1-.2.13.21.21,0,0,1-.19-.13Z"></path><path class="a" d="M149.17,65.62a5.4,5.4,0,0,1-2.09,1.31L147,67a5.5,5.5,0,0,1-5.16-.92,5.46,5.46,0,0,1-1.65-2.19v0a5.59,5.59,0,0,1-.41-2.08,5.51,5.51,0,0,1,.41-2.08v0a5.41,5.41,0,0,1,1.64-2.18h0a5.48,5.48,0,0,1,6.87,0,5.5,5.5,0,0,1,1.64,2.18v0c0,.09.08.18.11.27h-8.77a5.46,5.46,0,0,0-.3,1.81,5.35,5.35,0,0,0,.3,1.8h12.37a.18.18,0,0,0,.18-.16l.06-.51a9.16,9.16,0,0,0,0-2.26,9.1,9.1,0,0,0-18.06,0,9.16,9.16,0,0,0,0,2.26,9.1,9.1,0,0,0,15.47,5.3l.41-.42a.18.18,0,0,0,0-.25l-2.29-2.3a.19.19,0,0,0-.26,0l-.42.42Z"></path><path class="b" d="M67.2,55.65c.39-5,4.69-6.39,8.73-6.39s8.19,1.57,8.19,6.51c0,5.35-4,6.59-8.46,6.59-1.75,0-4.58.45-4.58,2.74v1.8h13.1v3.71H67.11V65.07c0-4.85,4.39-6.29,8.55-6.29,1.59,0,4.51-.49,4.51-2.92s-1.8-3.07-4.24-3.16-4.7.84-4.79,2.95Z"></path><path class="b" d="M83.4,43.55V35H73.05v8.52h-4V22.48h4v8.88H83.4V22.48h3.95V43.55Z"></path><path class="b" d="M112.76,33.11C112.7,38.56,109.35,44,102,44S91.11,38.68,91.11,33.14A10.66,10.66,0,0,1,102,22C109.23,22.09,112.82,27.63,112.76,33.11ZM102,40.36c5,0,6.83-3.73,6.89-7.19s-2-7.44-6.8-7.53c-4.49,0-7.14,3.37-7,7.56C95.11,36.66,97,40.36,102,40.36Z"></path><path class="b" d="M120.46,37.32v6.2h-4V22.45l9.93,0c10.36,0,10.39,14.81,0,14.9Zm0-3.64h6c5.09,0,5.06-7.47,0-7.47h-6Z"></path><path class="b" d="M153.22,43.52H137.44V22.45h15.78V26.3H141.39v4.85H152.8v3.7H141.39v4.76h11.83Z"></path><path class="b" d="M72.1,81.45l-.43,1.78H73l.45-1.78H75l-.44,1.78h.86V84.6H74.2l-.56,2.16h.94v1.38H73.32l-.39,1.6H71.35l.39-1.6H70.43L70,89.74H68.47l.39-1.6H68V86.76h1.25l.55-2.17h-1V83.23h1.31l.44-1.78Zm-.85,3-.59,2.35h1.49l.59-2.35Z"></path><path class="b" d="M78,89.74V81.45h1.55v8.29Z"></path><path class="b" d="M90.06,89.74H88.27L85.86,87H84.28v2.77H82.71v-8.3h4a2.74,2.74,0,0,1,3,2.75,2.46,2.46,0,0,1-2.1,2.6l2.52,2.84Zm-5.78-6.83v2.65h2.38a1.33,1.33,0,1,0,0-2.65Z"></path><path class="b" d="M98.73,89.74H92.52V81.45h6.21V83H94.08v1.91h4.49v1.46H94.08V88.2h4.65Z"></path><path class="b" d="M103.44,82.87h-2.63V81.45h6.82v1.42H105v6.87h-1.56Z"></path><path class="b" d="M110,89.74V81.45h1.56v8.29Z"></path><path class="b" d="M116,81.45v3.24a2.16,2.16,0,0,1,1.83-.87c1.66,0,2.39,1.12,2.39,2.84v3.08h-1.45V86.67c0-1.06-.55-1.51-1.32-1.51a1.5,1.5,0,0,0-1.45,1.6v3h-1.44V81.45Z"></path><path class="b" d="M127.45,83.9h1.38v5.84h-1.36l-.07-.85a2.2,2.2,0,0,1-1.9,1,3.08,3.08,0,0,1,0-6.16,2.15,2.15,0,0,1,1.86.95Zm-3.51,2.92a1.67,1.67,0,0,0,1.73,1.77,1.77,1.77,0,0,0,0-3.54A1.66,1.66,0,0,0,123.94,86.82Z"></path><path class="b" d="M135.92,89.74V86.68a1.4,1.4,0,0,0-1.41-1.56A1.54,1.54,0,0,0,133,86.76v3h-1.44V83.89h1.3l.09.79a2.63,2.63,0,0,1,1.92-.87c1.37,0,2.48,1,2.48,2.86v3.07Z"></path><path class="b" d="M146,81.46v8.28h-1.35l-.1-.8a2.11,2.11,0,0,1-1.88.93,2.87,2.87,0,0,1-3-3.05,2.8,2.8,0,0,1,3-3.06,2.42,2.42,0,0,1,1.92.93V81.46Zm-4.89,5.36a1.68,1.68,0,1,0,3.35,0,1.67,1.67,0,0,0-1.7-1.71A1.61,1.61,0,0,0,141.14,86.82Z"></path><path class="b" d="M152.45,85.45a2,2,0,0,0-1.44-.52c-.69,0-1.07.21-1.07.58s.34.59,1.09.64c1.1.07,2.5.32,2.5,1.87,0,1-.84,1.92-2.51,1.92a3.4,3.4,0,0,1-2.7-1l.71-1a2.9,2.9,0,0,0,2,.82c.55,0,1.06-.22,1.06-.64s-.33-.63-1.16-.68c-1.11-.08-2.42-.48-2.42-1.81s1.4-1.83,2.46-1.83a3.16,3.16,0,0,1,2.28.77Z"></path><polygon class="c" points="61.7 17.68 7.89 41.73 0 25.38 70.23 0 61.7 17.68"></polygon><polygon class="d" points="51.89 42.91 14.29 61.1 7.89 47.83 61.7 25.38 51.89 42.91"></polygon><polygon class="e" points="46.05 63.92 24.25 88.22 15.48 70.04 53.81 47.83 46.05 63.92"></polygon><path class="f" d="M30.85,32.3c-14.67,0-27-2.93-30.85-6.93L7.89,41.73c3.5,2.75,12.46,4.71,23,4.71s19.46-2,23-4.71L61.7,25.37C57.89,29.37,45.52,32.3,30.85,32.3Z"></path><path class="g" d="M30.85,52.55c-10.5,0-19.46-2-23-4.72l7.59,15.74c2.67,1.76,8.64,3,15.58,3,6.47,0,12.09-1.07,15-2.65l7.76-16.09C50.31,50.59,41.35,52.55,30.85,52.55Z"></path><path class="h" d="M24.25,88.22a20.27,20.27,0,0,0,6.7,1,21.22,21.22,0,0,0,6.45-.87l8.65-17.93C43.15,72,37.53,73,31.06,73c-6.94,0-12.91-1.23-15.58-3Z"></path></svg>