<?xml version="1.0" encoding="UTF-8"?>
<svg xmlns="http://www.w3.org/2000/svg" viewBox="0 0 78.77592 78.77592">
  <defs>
    <style>.a{fill:#fff;}.b{fill:none;}.c{fill:#3868b2;}.d{fill:#238e45;}.e{fill:#ec2027;}</style>
  </defs>
  <title>Iretifavicon</title>
  <circle class="a" cx="39.38796" cy="39.38796" r="38.88796"></circle>
  <path class="b" d="M62.665,22.694a3.99634,3.99634,0,0,1-.62676.51136A3.99634,3.99634,0,0,0,62.665,22.694Z"></path>
  <path class="b" d="M59.40886,23.81306c-.11026-.01243-.22147-.0123-.33073-.03381C59.18739,23.8008,59.29856,23.80063,59.40886,23.81306Z"></path>
  <path class="b" d="M61.04691,23.65691a3.97907,3.97907,0,0,1-.44046.12832A3.99308,3.99308,0,0,0,61.04691,23.65691Z"></path>
  <path class="b" d="M59.85892,23.85652a4.014,4.014,0,0,0,.42366-.0404,4.00259,4.00259,0,0,1-.43662.03914Z"></path>
  <path class="b" d="M61.80148,23.32993a3.97275,3.97275,0,0,1-.45665.23884A3.96161,3.96161,0,0,0,61.80148,23.32993Z"></path>
  <path class="b" d="M58.63157,23.64644c-.09953-.03186-.20206-.05066-.29945-.09037C58.42955,23.59582,58.532,23.61458,58.63157,23.64644Z"></path>
  <path class="b" d="M57.87452,23.31549c-.08059-.04555-.16628-.07775-.2443-.12919C57.70824,23.23774,57.79393,23.26994,57.87452,23.31549Z"></path>
  <path d="M53.76932,21.31855c.08368.06153.1673.12305.24994.186q.33225.25287.65436.51855l.092.07422.08124.06567c.26215.21973.52789.45362.79034.69507l.10773.10242.09222.08813.10645.1001c.1.09387.20007.18762.29742.28406a5.11186,5.11186,0,0,0,3.61792,1.496,5.05737,5.05737,0,0,0,3.6344-8.56677,1.36821,1.36821,0,0,0-.11322-.1283c-.05865-.058-.11755-.11328-.17645-.16858l-.10571-.09985q-.20452-.19776-.41278-.39221-.35844-.33473-.72693-.65784l-.09119-.08032c-.1051-.09277-.21033-.18555-.31714-.27661-.28112-.239-.56744-.47144-.8562-.70093l-.11572-.09351c-.06665-.05432-.13336-.10839-.20136-.16113-.40484-.31347-.81323-.61523-1.21374-.897-.05316-.03735-.10687-.07324-.16077-.10889l-.09588-.06445c-.33057-.22791-.66431-.45129-1.00348-.667-.10633-.06763-.21424-.13355-.32227-.19922l-.127-.07764c-.28321-.1737-.5683-.34448-.857-.50976q-.25057-.14337-.503-.28138-.42855-.23529-.86426-.457l-.06945-.03552c-.1435-.07336-.287-.14673-.43189-.21753-.3211-.1571-.64642-.30688-.97326-.45361l-.14521-.06616c-.09021-.04151-.18042-.083-.27179-.12244-.49469-.21362-.95886-.40186-1.41894-.5752-.04187-.01574-.0846-.03064-.12732-.04528l-.0625-.022c-.42706-.15783-.85224-.30542-1.26312-.43823-.11322-.03662-.2276-.071-.34186-.10522L49.968,8.21211c-.32983-.10083-.66082-.19825-.99487-.2887-.18725-.05066-.37579-.09875-.56451-.14612q-.4845-.12195-.9751-.229c-.19745-.04334-.383-.084-.56976-.12134-.34937-.06982-.70118-.13184-1.05433-.19043l-.16558-.02832c-.11121-.01929-.22248-.03845-.3346-.0553-.56531-.08471-1.079-.14978-1.57031-.19922l-.02063-.00207-.03235-.0022-.0426-.00317c-.5423-.05286-1.04938-.09107-1.54517-.116-.54535-.02759-1.09668-.0415-1.63843-.0415s-1.09307.01391-1.63861.0415c-.495.0249-1.00207.063-1.55017.11646l-.06543.005c-.5589.05554-1.11389.1283-1.77136.23108l-.09692.01489-.22992.03638c-.55371.09228-1.10865.19971-1.64954.31946l-.2113.04883-.10071.02356c-.60046.13916-1.13348.27636-1.6294.41894l-.0559.01514c-.49262.14282-1.02381.31347-1.62152.52148l-.07953.02759-.23267.08154c-.51251.18433-.93683.34632-1.33539.50977-.042.01733-.08209.03638-.12158.05664a32.85978,32.85978,0,0,0-5.167,2.70068l-.50421.3241-.00678-.00671-.166.11767-.44251.28442.01733.01734-.147.10425A32.60682,32.60682,0,0,0,8.05845,35.85957l-.00311.00378-.032.32788c-.03479.3562-.05786.71582-.08075,1.07532l-.00439.0697-.01123.146c-.00672.08154-.01331.16321-.01764.24548-.02747.52967-.04187,1.06665-.04291,1.59644l-.00153.01916v.08338l.001.01269.00067.02075c.00086.51465.01532,1.05237.04279,1.5824.00427.0824.01086.16419.01764.2461l.011.14392.004.062c.023.36279.04627.72546.08136,1.085l.03363.34424.00348.0039a32.55316,32.55316,0,0,0,5.52417,14.84766l.31879.4646-.0091.009.16663.22046.25366.36963.01459-.01453.12762.16883A32.68967,32.68967,0,0,0,37.1807,71.817l.05341.00537.02044.00073c.11976.0105.23291.01538.34479.01538a3.94449,3.94449,0,0,0,3.91858-3.96106V65.64021a3.97254,3.97254,0,0,0-3.55322-3.93469l-.14118-.01624c-.35748-.042-.73175-.09656-1.14471-.16711-.07178-.01221-.14307-.02625-.21436-.04029l-.14752-.02856c-.25677-.0481-.51245-.09839-.76587-.15528-.12085-.0271-.24066-.05664-.36065-.08593l-.05664-.01392c-.23407-.05737-.46705-.11767-.69849-.18237-.13953-.03906-.27893-.07886-.4176-.12061-.23365-.07031-.46479-.14551-.695-.223l-.1156-.0387c-.09009-.03-.18018-.06005-.26947-.092-.26184-.09375-.52063-.19421-.778-.29736l-.13482-.05249c-.04553-.01733-.09107-.03479-.136-.05347-.34662-.14416-.69006-.29712-1.02069-.45459l-.102-.051-.11877-.05982c-.25965-.12719-.51795-.25781-.7724-.395-.07782-.04187-.15467-.08557-.23163-.12915l-.112-.06335c-.21057-.11829-.41992-.23877-.62647-.36365-.12091-.07324-.241-.14844-.36065-.224q-.29783-.188-.58826-.38452c-.12775-.0863-.23785-.16077-.34662-.23718-.202-.14209-.40015-.28882-.59705-.43726l-.1145-.08545c-.061-.04541-.122-.0907-.182-.13745q-.38745-.30212-.76105-.621l-.06909-.057c-.29108-.24951-.55841-.49218-.84308-.76269-.04651-.04395-.09131-.089-.13623-.13379l-.10486-.104c-.18335-.17944-.365-.36035-.542-.54577-.0744-.078-.14716-.15723-.22-.23645l-.0597-.06494A22.78513,22.78513,0,0,1,21.926,52.01448l-.393-.57581-.35883-.60278A22.843,22.843,0,0,1,17.998,39.40364l-.00006-.02479-.00018-.00439.00024-.00854A22.695,22.695,0,0,1,28.60081,20.34028l.63452-.39709.5827-.3158a22.16924,22.16924,0,0,1,8.00488-2.5459c.33039-.03882.66455-.06457.99884-.09.05793-.0044.11542-.01014.17286-.01587.04772-.00476.09539-.00989.14361-.01282.44635-.02759.891-.04163,1.32153-.04163s.87531.014,1.3216.04163c.05041.00317.10028.0083.15015.01343.05865.00586.11724.01159.17626.01611.33069.02539.66169.05054.98884.089.332.03894.68951.09094,1.09283.15869.07184.01209.14337.02551.2149.03906l.11927.02234q.38031.06977.75683.15186.18228.03991.36359.08276c.25525.06055.50873.12647.7608.1958l.12409.03345c.05859.01562.11718.03125.17535.0481.36975.10717.70581.21313,1.02728.3236l.05091.01868.08758.0321q.44019.15454.86994.32581c.07818.03113.15515.06348.23224.0957l.08667.03638q.34468.14355.68328.29785c.11023.0503.21967.10034.3285.15222.24005.11426.47741.23377.71282.35633l.11457.05871.1289.06653c.31659.16992.62647.34546.92127.522l.09253.05762.09961.06238q.35668.21862.70495.44922c.086.05713.17041.11535.255.17358l.03918.027q.30084.20709.59436.42334Z"></path>
  <path d="M34.64658,49.05183a5.82022,5.82022,0,0,0,11.64044,0V41.7375L34.64658,30.09687Z"></path>
  <path d="M40.46683,23.80683a5.80564,5.80564,0,0,0-4.67919,2.36939L46.287,36.67573V29.6269A5.82011,5.82011,0,0,0,40.46683,23.80683Z"></path>
  <path d="M40.47038,6.86257l.00349.00039-.00567-.00013Zm-.02129,0,.00209.00022L40.4456,6.863Z"></path>
  <polygon class="c" points="40.449 6.863 40.446 6.863 40.451 6.863 40.449 6.863"></polygon>
  <polygon class="c" points="40.47 6.863 40.468 6.863 40.474 6.863 40.47 6.863"></polygon>
  <path class="c" d="M72.97954,39.33372l.00122-.01248-.00209-.0209Z"></path>
  <path class="d" d="M62.68766,17.071c-.02319-.02417-.03906-.05249-.063-.07617-.089-.08813-.18219-.17163-.27215-.25867q-.198-.1917-.39942-.37951-.34662-.32373-.70331-.63648c-.13134-.11547-.26184-.23193-.395-.34521-.27172-.2312-.54882-.45606-.82824-.678-.1026-.08154-.20288-.16614-.30652-.24634q-.577-.44678-1.17413-.8678c-.08167-.05749-.16626-.111-.24842-.1676-.31958-.22033-.64227-.43652-.97027-.645-.1435-.09143-.28968-.17871-.4347-.2677-.27392-.16809-.54974-.33337-.829-.49328q-.24189-.13826-.48658-.272-.41391-.22742-.83545-.44189c-.16125-.08228-.3222-.16528-.48492-.24487-.31043-.15186-.62488-.29651-.941-.43836-.13452-.06042-.26746-.1239-.40308-.18249-.45227-.19532-.90918-.38184-1.372-.55616-.06036-.023-.12237-.04235-.183-.06469q-.60543-.224-1.2218-.42408c-.1593-.05151-.32092-.09814-.48132-.14709-.31879-.09753-.63886-.19177-.9618-.27918-.181-.04907-.36322-.09545-.54559-.14123q-.46857-.11791-.94275-.22156c-.18329-.04-.36651-.08032-.551-.11719-.33771-.06762-.67786-.12744-1.01929-.18408-.16138-.02673-.32159-.05664-.4837-.08105-.50275-.0752-1.00843-.14148-1.51856-.19263l-.02338-.00183c-.0213-.00208-.04309-.00281-.06439-.00488-.49688-.04847-.99658-.08741-1.49969-.11267q-.78745-.03993-1.58454-.04029-.79706,0-1.58453.04029c-.5033.02526-1.00305.0642-1.50006.11279-.02124.00195-.04291.00268-.064.00476h-.00006l-.02331.00183c-.56793.05689-1.1297.13428-1.68811.22156-.10541.01648-.21106.032-.316.04944q-.8041.1342-1.59424.30883c-.10089.02222-.20087.04676-.30139.07007-.52985.12281-1.05591.25537-1.57508.40479l-.05157.01391c-.52979.15345-1.052.32471-1.57.50489-.10071.03515-.2016.06958-.30188.10547-.43426.15625-.86578.31836-1.29113.49279-.02912.012-.05463.02808-.08326.04065a31.7734,31.7734,0,0,0-5.03271,2.62683l3.8457,3.84559.00006.00024L29.1605,18.538l.14673.14661a23.29841,23.29841,0,0,1,8.39056-2.66809c.345-.04053.69385-.06775,1.04279-.09424.11084-.00842.22009-.02283.33136-.02978q.68865-.04248,1.38781-.04358.6992,0,1.38782.04358c.11487.0072.22742.022.34174.03076.3454.02637.69085.053,1.03229.09314.385.04529.76635.10242,1.14544.16614.11725.01977.23334.04272.3501.0642q.399.07324.79346.15918.19116.04212.3811.0868.40155.0954.79755.2052c.10455.02881.20977.05542.31372.08569.36261.1051.722.21729,1.07708.33936.04926.01684.09711.03613.14612.05346q.46.16151.91089.34107c.11231.0448.22315.092.33447.13842q.36109.15052.716.31226c.11511.05249.22979.105.34393.1593q.37774.18.7475.37366c.08478.04419.1709.08618.25513.13135q.48952.26276.96514.547c.06806.04065.134.08423.20154.12561q.37363.22907.73847.47071c.10363.06885.20575.13952.30816.21q.31494.21679.62238.44336c.1.07361.20007.147.29889.22217q.34827.26513.68561.54345c.06024.04944.12219.0968.18188.147q.42224.35412.82721.72753c.071.06531.1394.13331.20953.19947.14148.13342.28455.26538.42279.40234a4.1219,4.1219,0,0,0,.63453.51514c.078.05151.16369.08374.24432.12927a4.10889,4.10889,0,0,0,.45758.2406c.09741.03967.2.05847.29944.09033a4.08908,4.08908,0,0,0,.44659.13282c.10926.02148.22046.02136.33069.03381a2.37158,2.37158,0,0,0,.87372.003c.108-.01147.217-.0105.32391-.03088a3.96036,3.96036,0,0,0,.44043-.1283c.09912-.031.20105-.04907.29792-.08813a3.96843,3.96843,0,0,0,.45666-.2389c.07806-.04406.16119-.0747.23676-.12451A3.99716,3.99716,0,0,0,62.665,22.694h.00006A4.00916,4.00916,0,0,0,62.68766,17.071Z"></path>
  <path class="a" d="M37.84556,62.77119q-.07389-.00843-.14765-.01709c-.40326-.04736-.80261-.10718-1.19928-.17481-.12738-.02172-.253-.04834-.37957-.072-.269-.05053-.53711-.10327-.80274-.163-.1466-.03284-.29181-.069-.43738-.10462q-.36831-.09008-.7323-.19116c-.1466-.041-.29266-.08276-.438-.12658-.24469-.07361-.48712-.15223-.72851-.23377-.13471-.04541-.27-.08935-.40363-.13721-.27453-.09814-.54577-.20337-.81561-.3114-.09424-.03772-.19-.07238-.28375-.11133q-.54191-.22539-1.07-.47644c-.078-.03711-.15356-.07812-.23108-.116-.27258-.13355-.54327-.27051-.80987-.41419-.12122-.0653-.24-.13415-.36-.20166-.2207-.124-.43988-.25012-.65625-.381-.12714-.0769-.25293-.15576-.37842-.235q-.31128-.19648-.61572-.40247c-.12164-.08228-.24329-.16431-.3634-.24878-.21149-.1488-.41919-.30249-.62549-.458-.1034-.07788-.20819-.15381-.3103-.2334q-.40605-.3164-.79731-.65063c-.03259-.02771-.06659-.05371-.09906-.08154q-.43825-.37756-.8562-.77686c-.08581-.0813-.16809-.16626-.25256-.2489-.192-.18787-.3822-.37732-.56763-.57166-.09906-.10376-.19556-.20983-.29278-.31543a23.76822,23.76822,0,0,1-2.1507-2.6975L18.74,54.91914,15.381,58.27827l-.06867.0686A31.50231,31.50231,0,0,0,37.28776,70.75l.03113.00317h.00866a2.76637,2.76637,0,0,0,.457-.0061c.09-.0061.17878-.01294.26648-.02747a2.76843,2.76843,0,0,0,.30847-.07251c.08368-.02392.16645-.04675.24695-.07812a2.803,2.803,0,0,0,.28479-.13489c.075-.03931.15015-.07617.22107-.12183a2.84886,2.84886,0,0,0,.25409-.19189c.06409-.05212.12988-.10083.18933-.1582a2.93861,2.93861,0,0,0,.21649-.24549c.05109-.06189.10584-.11975.1518-.18591a2.91585,2.91585,0,0,0,.17157-.29858c.03583-.06751.07757-.13062.10821-.20093a2.91453,2.91453,0,0,0,.12061-.36865c.01782-.06311.044-.12207.05762-.18677a2.90793,2.90793,0,0,0,.06353-.59839V65.64021A2.89818,2.89818,0,0,0,37.84556,62.77119Z"></path>
  <path class="e" d="M20.25285,51.38447a23.37355,23.37355,0,0,1-3.14448-9.213,23.63644,23.63644,0,0,1-.18273-2.76673l-.00061-.01941.00061-.0194A23.76759,23.76759,0,0,1,28.032,19.43135l-5.67407-5.67408-.08387-.08386A31.52243,31.52243,0,0,0,9.1063,36.14814c-.00482.04712-.00647.095-.011.14221l-.00476.005c-.03583.36743-.05859.73852-.08227,1.10913-.00812.12671-.02149.252-.02808.37915q-.03983.76758-.04144,1.54468c-.00012.01855-.00159.03674-.00159.05542l.00006.00158-.00006.00159c0,.01868.00147.03687.00159.05542q.00136.77711.04144,1.54468c.00653.12622.01978.25073.02789.37671.02368.37158.04651.74341.08246,1.11157l.00476.00513c.0047.04712.00623.09509.01117.14209a31.31392,31.31392,0,0,0,5.36225,14.54614l5.65789-5.658Z"></path>
</svg>
