<svg xmlns="http://www.w3.org/2000/svg" viewBox="0 0 2440.25781 804.21925"><defs><style>.a{fill:#b44398;}.b{fill:#6d9b51;}.c{fill:#447cbf;}.d{fill:#da9328;}.e{fill:#db1e31;}.f{fill:#198a43;}.g{fill:#fff;}</style></defs><title>SIPAD LOGO</title><path class="a" d="M246.72758,554.3727a238.01444,238.01444,0,0,0,207.36548,14.94787,237.43334,237.43334,0,0,1-153.29492-29.41894c-102.25391-58.977-124.80884-171.08594-84.78-278.01587L152.3289,225.14992C86.54667,338.96437,132.79472,488.65614,246.72758,554.3727Z"></path><path class="b" d="M563.6685,472.124A237.01281,237.01281,0,0,1,461.51542,590.0309c-102.25708,58.97717-210.72094,22.43665-283.40967-65.65442l-63.68945,36.727C180.1956,674.918,333.09013,709.7588,447.02909,644.04811A237.5252,237.5252,0,0,0,563.6685,472.124Z"></path><path class="c" d="M534.18925,328.73048A236.74616,236.74616,0,0,1,585.334,476.06532c0,117.94544-85.90918,193.51673-198.62671,212.34668v73.46888c131.561,0,238.208-114.851,238.208-246.2754A237.43522,237.43522,0,0,0,534.18925,328.73048Z"></path><path class="d" d="M602.51469,297.48171a237.99876,237.99876,0,0,0-207.37134-14.948A237.443,237.443,0,0,1,548.4412,311.9529C650.69511,370.9297,673.24711,483.039,633.21806,589.96877l63.69531,36.73584C762.69267,512.89015,716.44755,363.18947,602.51469,297.48171Z"></path><path class="e" d="M285.57377,379.73048A237.00717,237.00717,0,0,1,387.72685,261.81764c102.251-58.97094,210.721-22.43066,283.40381,65.6604L734.826,290.751C669.04374,176.93044,516.1519,142.09547,402.21318,207.80641A237.53338,237.53338,0,0,0,285.57377,379.73048Z"></path><path class="f" d="M315.04716,523.1238a236.77768,236.77768,0,0,1-51.14184-147.33472c0-117.94531,85.90893-193.5166,198.6267-212.34668V89.9734c-131.55835,0-238.21093,114.85108-238.21093,246.27564A237.44277,237.44277,0,0,0,315.04716,523.1238Z"></path><path class="g" d="M521.5146,441.60605q0,33.24674-.001,66.49349c-.00052,5.279-2.31272,7.626-7.55,7.63045q-17.35068.01459-34.70135-.00105c-5.10094-.00529-7.48365-2.40326-7.48408-7.51525q-.00561-66.80529-.00076-133.61059c.00031-5.30042,2.42628-7.69729,7.78055-7.69923q17.039-.00615,34.078-.00048c5.50178.00136,7.87749,2.35147,7.87792,7.79347Q521.51657,408.15145,521.5146,441.60605Z"></path><path class="g" d="M453.79636,460.76709q0,23.89325-.0017,47.78652c-.00132,4.75023-2.36533,7.1627-7.11493,7.17168q-17.66016.03339-35.32043.00087c-4.77564-.00805-7.16908-2.374-7.17144-7.14259q-.02365-47.78649-.00069-95.573c.00219-4.78709,2.384-7.15914,7.143-7.16645q17.66021-.02712,35.32045-.00011c4.77371.00748,7.14255,2.39629,7.144,7.13653Q453.80164,436.87384,453.79636,460.76709Z"></path><path class="g" d="M336.56309,480.11821q-.00006-14.13019.00291-28.26037.00776-7.24252,7.293-7.23872,17.45488-.00824,34.90979-.00032c4.96875.002,7.34888,2.38276,7.35137,7.39749q.014,28.2603-.00121,56.52062c-.00309,4.80731-2.32961,7.17772-7.09378,7.1876q-17.66262.03668-35.32536.001c-4.78753-.00879-7.12754-2.37174-7.1333-7.13921Q336.54934,494.35229,336.56309,480.11821Z"></path><path class="g" d="M394.487,339.5978c-2.40195-1.75182-4.69011-3.30948-6.83052-5.049a3.134,3.134,0,0,1-1.1952-2.33621,3.06766,3.06766,0,0,1,1.88238-1.84333c11.02762-3.60421,22.08252-7.12526,33.13915-10.64018,2.46653-.78411,3.44975-.00929,3.62894,2.58355q1.16674,16.88262,2.376,33.76232c.07261,1.03563.135,2.07662.11339,3.11327-.046,2.19975-1.655,3.07625-3.50615,1.83881-2.12379-1.41973-4.15821-2.97316-6.3-4.518-2.45085,3.06417-4.7967,6.14234-7.2934,9.09284-9.60254,11.34787-20.6493,20.82468-34.68324,26.33659-11.41285,4.48246-23.29115,5.76817-35.4491,5.00158-2.07095-.13057-4.13381-.39353-6.20517-.51235-1.43787-.08248-2.74608-.41219-2.86572-2.05579-.12111-1.66386,1.27214-2.12033,2.56714-2.50235a89.94242,89.94242,0,0,0,26.034-12.56537C374.68587,369.02006,385.99984,355.69841,394.487,339.5978Z"></path><path class="g" d="M50.2002,608.98682l-4.01368-8.58789,38.04981-17.7837L88.25,591.20361Z"></path><path class="g" d="M30.99805,562.24268l-3.09668-8.4502,39.43457-14.45215,2.97363,8.11231L51.957,575.84131l25.35156-9.291,3.11719,8.50684L40.99023,589.50928,38.01758,581.397l18.44433-28.48633Z"></path><path class="g" d="M17.56348,512.85938l-2.03516-8.76661,40.91113-9.499,1.9541,8.416L36.69336,528.9292l26.30078-6.10645L65.043,531.648l-40.91211,9.499-1.9541-8.416,21.80371-26.00489Z"></path><path class="g" d="M12.23438,459.96826a21.05594,21.05594,0,0,1,17.52441-12.99267,21.2423,21.2423,0,0,1,19.92187,9.07763,24.46272,24.46272,0,0,1,2.38282,22.7959A21.14931,21.14931,0,0,1,34.4502,491.85107,21.106,21.106,0,0,1,14.62109,482.794a24.75429,24.75429,0,0,1-2.38671-22.82569Zm9.04394,16.97168a12.92194,12.92194,0,0,0,5.29688,4.21192,13.61548,13.61548,0,0,0,17.76464-6.65332,12.21987,12.21987,0,0,0,1.11914-6.60206,12.06336,12.06336,0,0,0-2.4248-6.17138,12.85183,12.85183,0,0,0-5.31445-4.08936,13.82184,13.82184,0,0,0-6.9502-.99267,13.53583,13.53583,0,0,0-6.50586,2.39941,12.91988,12.91988,0,0,0-4.32324,5.09717,12.06787,12.06787,0,0,0-1.09668,6.53955A12.53646,12.53646,0,0,0,21.27832,476.93994Z"></path><path class="g" d="M8.66992,444.25439l.165-10.19873,31.86133-10.94482L9.208,411.07861l.1582-9.77832,41.72363,17.35889-.1582,9.77832Z"></path><path class="g" d="M55.03418,370.72559l-8.4873,2.33252-2.251,19.30908,7.72265,4.22314-1.13281,9.71387L11.28125,383.32178l1.13281-9.71387L56.209,360.65381ZM37.08789,388.38525,38.624,375.21484l-16.97461,4.665Z"></path><path class="g" d="M14.5625,356.9375l7.332-34.32568,7.86231,1.67968L27.0752,336.84814l33.21,7.09424-1.9795,9.271-33.21093-7.09424-2.66993,12.498Z"></path><path class="g" d="M24.13672,315.55273l2.63672-9.106,40.34277,11.68261-2.63672,9.106Z"></path><path class="g" d="M43.2334,266.65088a21.45658,21.45658,0,0,1,35.1123,13.58935,24.46764,24.46764,0,0,1-8.27246,21.375,21.31443,21.31443,0,0,1-10.209,4.76661A21.42847,21.42847,0,0,1,34.9502,288.0542a24.75376,24.75376,0,0,1,8.2832-21.40332Zm.31055,19.22851a12.921,12.921,0,0,0,2.79394,6.16358,13.61463,13.61463,0,0,0,18.84375,2.17822,12.21115,12.21115,0,0,0,4.00684-5.36523,12.0749,12.0749,0,0,0,.65625-6.59815,12.86255,12.86255,0,0,0-2.86524-6.063,13.83063,13.83063,0,0,0-5.73437-4.05273,13.5437,13.5437,0,0,0-6.88379-.83057,12.92918,12.92918,0,0,0-6.17188,2.56543,12.06738,12.06738,0,0,0-3.957,5.32032A12.53436,12.53436,0,0,0,43.544,285.87939Z"></path><path class="g" d="M63.459,220.74609l4.2627-7.92627,36.98926,19.895-4.09278,7.60889-33.41308,5.124,23.7793,12.78955-4.292,7.979L49.70313,246.32178l4.09277-7.60938,33.54785-5.11963Z"></path><path class="g" d="M122.38184,194.05371a4.687,4.687,0,0,1,3.50781,1.02637,4.79058,4.79058,0,0,1,1.98047,3.10547,4.70913,4.70913,0,0,1-4.01172,5.27881,4.756,4.756,0,0,1-3.52637-1.00245,4.62761,4.62761,0,0,1-1.93848-3.11181,4.82279,4.82279,0,0,1,3.98829-5.29639Z"></path><path class="g" d="M120.78809,142.77881l6.53027-6.87256,30.44922,28.92822L151.2373,171.707Z"></path><path class="g" d="M157.24023,107.84424l6.7295-5.97608L191.85742,133.273l-6.46,5.7373-33.13769-6.68359,17.92871,20.189-6.77539,6.01562-27.8877-31.40479,6.46094-5.73681,33.26172,6.73291Z"></path><path class="g" d="M200.1748,86.86816a12.86521,12.86521,0,0,0-5.63281,2.15577,12.5868,12.5868,0,0,0-5.36621,11.6792,13.387,13.387,0,0,0,2.44922,6.417,13.55154,13.55154,0,0,0,5.2168,4.5122,12.6676,12.6676,0,0,0,6.53906,1.27686,12.32542,12.32542,0,0,0,6.32129-2.272,13.55377,13.55377,0,0,0,3.916-4.396,18.00164,18.00164,0,0,0,2.16407-5.95215l8.04785,1.75684a25.28122,25.28122,0,0,1-3.28906,9.05029,21.961,21.961,0,0,1-6.27051,6.88965,22.38706,22.38706,0,0,1-10.82227,4.10986,20.82078,20.82078,0,0,1-10.98047-1.86181,21.76888,21.76888,0,0,1-8.73144-7.4336A20.95825,20.95825,0,0,1,182,91.15186a23.21205,23.21205,0,0,1,7.68848-8.8379,23.705,23.705,0,0,1,17.58886-3.7622l-.626,8.72021A15.95545,15.95545,0,0,0,200.1748,86.86816Z"></path><path class="g" d="M211.25293,68.97021l8.25-4.67041L236.11523,93.644l15.66407-8.86767,4.0791,7.20556L231.94434,105.52Z"></path><path class="g" d="M266.19727,75.87988a9.084,9.084,0,0,0,7.28418-.34668,8.68913,8.68913,0,0,0,5.00683-5.01465,9.92566,9.92566,0,0,0-.61621-7.52685l-9.90918-22.58106,8.68066-3.80957,9.90918,22.58106a19.389,19.389,0,0,1,1.78516,9.66748,15.29292,15.29292,0,0,1-3.39844,8.30615,21.1292,21.1292,0,0,1-8.18554,5.9834,21.49062,21.49062,0,0,1-10,1.99707,15.38657,15.38657,0,0,1-8.4961-3.08594,19.18121,19.18121,0,0,1-5.93359-7.84668l-9.91016-22.58154,8.68067-3.80957L261.00488,70.394A9.73262,9.73262,0,0,0,266.19727,75.87988Z"></path><path class="g" d="M310.37012,34.50293a20.82431,20.82431,0,0,0-6.27539.74853,7.30232,7.30232,0,0,0-3.44922,2.0293,2.92146,2.92146,0,0,0-.58106,2.95069,3.69608,3.69608,0,0,0,2.99219,2.61181,31.95272,31.95272,0,0,0,6.82422.39942,55.23685,55.23685,0,0,1,7.53906.269,12.60979,12.60979,0,0,1,5.68457,2.17383,10.477,10.477,0,0,1,3.88867,5.7583,11.41421,11.41421,0,0,1,.04883,7.24951,13.12833,13.12833,0,0,1-4.25683,5.96289,22.46757,22.46757,0,0,1-7.61914,3.9707,28.9458,28.9458,0,0,1-10.09766,1.29151,27.03314,27.03314,0,0,1-9.60449-2.13526l1.28222-8.51757a25.54089,25.54089,0,0,0,8.36914,2.209,19.68924,19.68924,0,0,0,7.7334-.60986,8.34057,8.34057,0,0,0,4.05469-2.40821,3.77171,3.77171,0,0,0-1.22363-5.68506,8.51438,8.51438,0,0,0-3.20313-.78418q-1.82958-.11571-4.94336-.01709a53.46823,53.46823,0,0,1-7.44531-.17236,12.39735,12.39735,0,0,1-5.5918-2.07715,10.12031,10.12031,0,0,1-3.85156-5.644,11.09479,11.09479,0,0,1-.04492-6.93652,12.94567,12.94567,0,0,1,4.12207-5.88916,21.962,21.962,0,0,1,7.668-4.01758,29.49513,29.49513,0,0,1,8.50488-1.356A28.85028,28.85028,0,0,1,319,26.84863l-1.13086,8.59619A31.91388,31.91388,0,0,0,310.37012,34.50293Z"></path><path class="g" d="M326.87988,21.17041l9.2295-2.16846,9.60644,40.88672-9.22949,2.16846Z"></path><path class="g" d="M378.8916,13.81445a21.0569,21.0569,0,0,1,13.67285,16.999,21.24326,21.24326,0,0,1-8.28613,20.26367,24.46553,24.46553,0,0,1-22.68457,3.2793,21.15114,21.15114,0,0,1-13.68555-17.0879,21.104,21.104,0,0,1,8.26953-20.17041,24.75665,24.75665,0,0,1,22.71387-3.28369ZM362.29,23.51953a12.92873,12.92873,0,0,0-4.001,5.4585,13.615,13.615,0,0,0,7.34766,17.48877,12.21958,12.21958,0,0,0,6.6416.85888,12.06943,12.06943,0,0,0,6.07129-2.666,12.85533,12.85533,0,0,0,3.877-5.47119,13.82513,13.82513,0,0,0,.71778-6.98438,13.54079,13.54079,0,0,0-2.65332-6.40625,12.93142,12.93142,0,0,0-5.26368-4.11963,12.07682,12.07682,0,0,0-6.57812-.8374A12.53406,12.53406,0,0,0,362.29,23.51953Z"></path><path class="g" d="M428.77344,8.87451l8.998-.187.87207,41.99121-8.63769.17969L409.10938,24.28662l.56054,26.99414-9.05762.188-.873-41.99072,8.63867-.17969,20.959,26.69043Z"></path><path class="g" d="M480.97852,46.97363a4.68719,4.68719,0,0,1,.83789,3.55811,4.78938,4.78938,0,0,1-1.72461,3.25439,4.70883,4.70883,0,0,1-6.57129-.88574,4.75464,4.75464,0,0,1-.86719-3.562,4.62833,4.62833,0,0,1,1.751-3.2207,4.8225,4.8225,0,0,1,6.57422.856Z"></path><path class="g" d="M524.85645,20.32764l9.19628,2.30029-10.1914,40.74463-9.19727-2.30029Z"></path><path class="g" d="M546.20605,25.34375l9.94532,3.55127,3.6416,28.69629L580.6748,37.65283l9.8877,3.53076L576.4375,80.7373l-8.02344-2.86523L577.959,51.145,558.60254,69.84473l-5.76367-2.05811-3.18946-26.751L540.10547,67.7627l-8.02442-2.86524Z"></path><path class="g" d="M627.88184,63.98242q2.18408,5.37965-.96289,11.58692-3.30909,6.52953-9.07422,8.14746-5.76417,1.61791-12.88184-1.99024l-7.43945-3.771-5.42578,10.70361-8.45508-4.28662,18.99023-37.46143,15.89453,8.05762Q625.69776,58.60376,627.88184,63.98242ZM614.42871,75.59424a6.69135,6.69135,0,0,0,4.32715-3.82666,6.43763,6.43763,0,0,0,.47461-5.646,9.40512,9.40512,0,0,0-4.68555-4.35937l-7.01074-3.55371-6.42969,12.6831,7.01074,3.5542A9.18,9.18,0,0,0,614.42871,75.59424Z"></path><path class="g" d="M642.33594,117.89551,643.9873,109.25l-16.335-10.54-7.19726,5.06738L612.2373,98.4751,650.335,73.07275l8.21777,5.30274-7.69628,45.01758ZM634.40527,93.999l11.14161,7.189,3.30273-17.29151Z"></path><path class="g" d="M692.81055,115.40869a12.87489,12.87489,0,0,0-3.61328-4.83008,12.587,12.587,0,0,0-12.70118-1.97168,13.40239,13.40239,0,0,0-5.5039,4.10889,13.561,13.561,0,0,0-2.915,6.25147,12.66866,12.66866,0,0,0,.55859,6.63867,12.31964,12.31964,0,0,0,3.91211,5.46045,13.54567,13.54567,0,0,0,5.29883,2.56591,17.99,17.99,0,0,0,6.31641.45606l.50879,8.22217a25.27434,25.27434,0,0,1-9.6045-.69239,21.95892,21.95892,0,0,1-8.34082-4.14941,22.39414,22.39414,0,0,1-6.91015-9.2876,20.81765,20.81765,0,0,1-1.208-11.07129A21.76753,21.76753,0,0,1,663.374,106.6792a20.95819,20.95819,0,0,1,20.34961-7.58447,23.20872,23.20872,0,0,1,10.60254,4.98242,23.699,23.699,0,0,1,8.42481,15.8916l-8.56055,1.78027A15.95579,15.95579,0,0,0,692.81055,115.40869Z"></path><path class="g" d="M710.2168,118.28906l24.89843,24.74073-5.667,5.70312-9.1084-9.05078-23.93652,24.08935-6.72461-6.68164,23.93652-24.08935-9.06543-9.0083Z"></path><path class="g" d="M723.60449,161.375l10.13086,11.7041-4.627,4.00537-10.13086-11.7041Z"></path><path class="g" d="M755.3916,167.16553l5.81738,7.48535-33.16308,25.772-5.81738-7.48535Z"></path><path class="g" d="M784.48145,208.46436l4.89843,7.55078-35.23535,22.85693-4.70215-7.24805,11.582-31.7583-22.65136,14.69385-4.93067-7.60059,35.23535-22.85742,4.70215,7.24854-11.65039,31.87353Z"></path><path class="g" d="M793.63281,223.19873l4.5166,9.145-23.33007,24.30371,33.50586-3.69922,4.33007,8.769-45.04394,3.64209-4.33008-8.769Z"></path><path class="g" d="M815.55078,269.30273l10.98633,30.03321-7.38184,2.70019-7.72949-21.13037-8.56543,3.1333,6.94727,18.98926-7.38184,2.7002-6.94629-18.98926-8.73437,3.19531,7.957,21.75-7.38184,2.70068-11.21386-30.65332Z"></path><path class="g" d="M826.62305,332.48438a20.83839,20.83839,0,0,0-.39453-6.30713,7.30869,7.30869,0,0,0-1.833-3.55811,2.92011,2.92011,0,0,0-2.91309-.74609,3.69763,3.69763,0,0,0-2.77637,2.84082,31.98681,31.98681,0,0,0-.78222,6.7915,55.08737,55.08737,0,0,1-.69238,7.51172,12.61052,12.61052,0,0,1-2.48926,5.55371,10.47715,10.47715,0,0,1-5.96778,3.55811,11.41787,11.41787,0,0,1-7.24121-.3584,13.12839,13.12839,0,0,1-5.71386-4.58447,22.48615,22.48615,0,0,1-3.53614-7.83057,28.94274,28.94274,0,0,1-.72168-10.15479,27.02962,27.02962,0,0,1,2.6709-9.46875l8.43262,1.7583a25.5442,25.5442,0,0,0-2.67676,8.23194,19.69725,19.69725,0,0,0,.17481,7.75586,8.33459,8.33459,0,0,0,2.17675,4.18261,3.77113,3.77113,0,0,0,5.74512-.90185,8.53076,8.53076,0,0,0,.96289-3.15381q.21826-1.82007.29492-4.93457a53.52749,53.52749,0,0,1,.58985-7.42383,12.389,12.389,0,0,1,2.38867-5.46582,10.11393,10.11393,0,0,1,5.85156-3.52881,11.09085,11.09085,0,0,1,6.92774.34522,12.94544,12.94544,0,0,1,5.64843,4.44629,21.972,21.972,0,0,1,3.58008,7.88134,29.49382,29.49382,0,0,1,.876,8.56788,28.83112,28.83112,0,0,1-1.42578,8.03808l-8.51856-1.6123A31.91622,31.91622,0,0,0,826.62305,332.48438Z"></path><path class="g" d="M838.69922,346.31543l5.32226,34.69434-7.94726,1.21875-1.94629-12.69141-33.56738,5.14941-1.4375-9.3706,33.56738-5.14893L830.752,347.53467Z"></path><path class="g" d="M845.19727,389.85449l.35156,10.5542-25.34961,13.93262L846.417,426.43408l.35059,10.49414L804.791,438.32861l-.28418-8.51562,28.36425-.9458-24.50488-11.1294-.2041-6.1167,23.707-12.79736-28.36426.94629-.28418-8.51514Z"></path><path class="g" d="M845.9043,450.16748,843.04,482.019l-7.82813-.7041,2.01465-22.40918-9.083-.81689L826.333,478.22754l-7.8291-.70361,1.81054-20.13868-9.26269-.833-2.07324,23.06689-7.82813-.70361,2.92188-32.50879Z"></path><path class="g" d="M835.63379,522.06055l-1.81152,8.81591-41.14063-8.45214,1.73926-8.46289,30.54-14.49073-26.44727-5.43359,1.82324-8.87451,41.14063,8.45215-1.73828,8.46338-30.6709,14.5249Z"></path><path class="g" d="M831.56445,539.16211l-10.74511,33.41455-7.6543-2.46094,3.93066-12.22363-32.3291-10.396,2.90137-9.0249,32.33008,10.396,3.91211-12.16651Z"></path><path class="g" d="M801.70605,595.88477a20.81151,20.81151,0,0,0,3.53614-5.23682,7.30358,7.30358,0,0,0,.7207-3.937,2.92249,2.92249,0,0,0-1.85254-2.36914,3.69663,3.69663,0,0,0-3.93262.55615,31.91314,31.91314,0,0,0-4.76464,4.90234,55.3368,55.3368,0,0,1-5.13379,5.52735,12.61273,12.61273,0,0,1-5.36133,2.87988,10.48009,10.48009,0,0,1-6.89942-.82373,11.41707,11.41707,0,0,1-5.5166-4.7041,13.12644,13.12644,0,0,1-1.72851-7.11914,22.48506,22.48506,0,0,1,1.97851-8.36084,28.94517,28.94517,0,0,1,5.626-8.48438,27.03245,27.03245,0,0,1,7.89551-5.87012l5.60644,6.53956a25.534,25.534,0,0,0-7.14453,4.8872,19.70546,19.70546,0,0,0-4.5957,6.25,8.35,8.35,0,0,0-.8291,4.64209,3.77163,3.77163,0,0,0,5.10156,2.792,8.539,8.539,0,0,0,2.68848-1.91064q1.28319-1.3081,3.24414-3.729a53.514,53.514,0,0,1,5-5.52,12.38594,12.38594,0,0,1,5.22754-2.87207,10.1224,10.1224,0,0,1,6.78906.77588,11.0945,11.0945,0,0,1,5.27734,4.50244,12.94823,12.94823,0,0,1,1.75977,6.96972,21.95975,21.95975,0,0,1-1.97461,8.42774,29.4715,29.4715,0,0,1-4.53516,7.32178,28.8655,28.8655,0,0,1-6.03515,5.49755l-5.76368-6.47754A31.87389,31.87389,0,0,0,801.70605,595.88477Z"></path><path class="g" d="M1174.87305,233.51611q-31.23193-10.71606-51.26856-10.71972-12.58447,0-19.80859,4.894-7.23047,4.894-7.22363,14.21533,0,13.054,13.98242,20.27393,13.98194,7.23194,44.27636,15.61377,34.48683,9.78735,56.86133,19.8081,22.37111,10.02759,38.917,30.52783,16.53954,20.5144,16.54589,54.065,0,34.02686-17.94336,57.56-17.94873,23.54-48.47168,35.18848-30.53174,11.64477-68.28027,11.65186a262.13277,262.13277,0,0,1-84.12695-14.21534q-42.186-14.21118-72.94043-38.917l36.35351-73.63965q24.69873,21.44311,60.35743,36.12061,35.6543,14.6814,61.28808,14.68115,15.83936,0,24.70215-6.05859,8.84911-6.052,8.85547-17.24512,0-13.51245-14.44824-20.74023-14.45216-7.22022-44.74317-15.14746-34.02686-8.84766-56.39453-18.40967a100.15968,100.15968,0,0,1-38.68457-29.59571q-16.31982-20.03393-16.3125-52.6665,0-31.68969,16.77832-55.23,16.77832-23.52978,47.30664-36.12061,30.52149-12.58446,71.07617-12.584a262.84614,262.84614,0,0,1,73.17383,10.48633q36.35449,10.48681,63.38672,27.73144L1232.2002,259.6167A312.90278,312.90278,0,0,0,1174.87305,233.51611Z"></path><path class="g" d="M1302.57617,154.28369h96.94434V481.002h-96.94434Z"></path><path class="g" d="M1700.832,184.57861q34.71534,30.30177,34.72266,85.75782,0,58.26634-34.72266,90.41845-34.72559,32.15919-98.1084,32.15918l-51.26758.46582V481.002h-96.94433V154.28369h148.21191Q1666.103,154.28369,1700.832,184.57861Zm-68.97851,122.11133q11.88428-11.64477,11.88476-33.55713,0-21.43212-11.88476-32.8584-11.88429-11.41552-33.79-11.41894h-46.60743V318.3418h46.60743Q1619.96435,318.3418,1631.85352,306.68994Z"></path><path class="g" d="M1985.374,481.002l-19.10937-52.20019H1834.36621L1814.791,481.002h-99.74024l139.35645-326.71826h99.74023L2088.84277,481.002ZM1861.39844,357.958h79.23242l-39.15039-106.731Z"></path><path class="g" d="M2347.74512,174.55762q39.8496,20.2749,61.75488,57.32763,21.90234,37.05249,21.90527,85.52442,0,48.479-22.37109,85.75781-22.37109,37.29346-62.91992,57.56006-40.54834,20.27417-93.68164,20.27441H2112.61035V154.28369h143.085Q2307.88916,154.28369,2347.74512,174.55762Zm-35.6543,206.70459q20.50343-23.77,20.50684-62.92041,0-39.15015-21.90528-63.38623-21.9126-24.22852-56.86133-24.23584h-44.27636v174.312h48.9375Q2291.58008,405.03174,2312.09082,381.26221Z"></path><path class="g" d="M1002.46484,569.98193a23.16478,23.16478,0,0,0-6.90527-1.249,9.6664,9.6664,0,0,0-5.27344,1.249,3.91483,3.91483,0,0,0-1.94336,3.47022,4.57075,4.57075,0,0,0,1.35254,3.36572,10.5689,10.5689,0,0,0,3.40137,2.2207,53.79911,53.79911,0,0,0,5.58594,1.9087,60.97071,60.97071,0,0,1,8.085,2.91455,14.42985,14.42985,0,0,1,5.3789,4.30273,11.84436,11.84436,0,0,1,2.22071,7.49512,12.80848,12.80848,0,0,1-2.39453,7.73779,14.99383,14.99383,0,0,1-6.59278,5.03174,24.99255,24.99255,0,0,1-9.61133,1.73486,30.22383,30.22383,0,0,1-11.10449-2.1167,31.53322,31.53322,0,0,1-9.43847-5.65576L979.1123,594.48a28.43324,28.43324,0,0,0,8.25879,5.34375,21.95563,21.95563,0,0,0,8.53614,1.94287,10.836,10.836,0,0,0,6.10644-1.4917,4.9109,4.9109,0,0,0,.86817-7.49511,10.07415,10.07415,0,0,0-3.43555-2.186q-2.08155-.83277-5.69043-1.874a67.27232,67.27232,0,0,1-8.05078-2.84522,13.98639,13.98639,0,0,1-5.34375-4.19873,11.57145,11.57145,0,0,1-2.2207-7.39111,12.38691,12.38691,0,0,1,2.25585-7.39112,14.51968,14.51968,0,0,1,6.38477-4.89257,24.48284,24.48284,0,0,1,9.542-1.73487,32.25276,32.25276,0,0,1,9.334,1.38819,31.54679,31.54679,0,0,1,8.22461,3.74756l-3.74805,8.11962A35.178,35.178,0,0,0,1002.46484,569.98193Z"></path><path class="g" d="M1057.11621,572.48047v37.12842h-9.09082v-6.87061q-3.74853,7.21875-12.9082,7.21777-6.24609,0-9.85449-3.81689-3.60937-3.81592-3.60938-10.41016V572.48047h9.0918V593.0918a8.48409,8.48409,0,0,0,2.11621,6.10742,7.71391,7.71391,0,0,0,5.86426,2.2207,8.593,8.593,0,0,0,6.80078-3.05371,11.37889,11.37889,0,0,0,2.499-7.56445V572.48047Z"></path><path class="g" d="M1084.77148,580.04492a17.89538,17.89538,0,0,0-5.30859-.90234,7.15906,7.15906,0,0,0-3.64355.79834,2.66261,2.66261,0,0,0-1.35352,2.46338,2.92037,2.92037,0,0,0,1.7002,2.67187,27.34013,27.34013,0,0,0,5.3789,1.978,51.90268,51.90268,0,0,1,6.38379,2.32471,12.03155,12.03155,0,0,1,4.33789,3.40088,9.09994,9.09994,0,0,1,1.83887,5.93359,9.55364,9.55364,0,0,1-4.16406,8.32764,17.83958,17.83958,0,0,1-10.47852,2.915,26.58383,26.58383,0,0,1-8.39746-1.35351,19.76987,19.76987,0,0,1-6.94043-3.85156l3.123-6.31543a18.26763,18.26763,0,0,0,5.96875,3.36572,19.95174,19.95174,0,0,0,6.59277,1.21484,7.90865,7.90865,0,0,0,3.99023-.86767,2.82325,2.82325,0,0,0,1.49219-2.60254,3.14494,3.14494,0,0,0-1.73535-2.91455,30.70946,30.70946,0,0,0-5.62109-2.15137,47.76607,47.76607,0,0,1-6.10742-2.186,11.0333,11.0333,0,0,1-4.09375-3.26172,8.93567,8.93567,0,0,1-1.73536-5.72559,9.67126,9.67126,0,0,1,3.99024-8.36279,16.70377,16.70377,0,0,1,10.02832-2.87989,25.81212,25.81212,0,0,1,7.252,1.041,22.53242,22.53242,0,0,1,6.35059,2.91455l-3.26172,6.52393A26.71973,26.71973,0,0,0,1084.77148,580.04492Z"></path><path class="g" d="M1123.53027,607.31885a17.6111,17.6111,0,0,1-9.29882,2.70654,11.125,11.125,0,0,1-7.8418-2.81055q-3.05566-2.811-3.05371-8.29345V580.6001h-5.20508l-.06934-6.59278h5.27442V563.80566h8.95215v10.20166h10.61816v6.59278h-10.61816v16.7251a5.407,5.407,0,0,0,.97168,3.64355,3.728,3.728,0,0,0,2.915,1.07568,12.93131,12.93131,0,0,0,5.27442-1.52685Z"></path><path class="g" d="M1152.53906,609.60889v-4.51075a12.16713,12.16713,0,0,1-4.99707,3.67774,18.39076,18.39076,0,0,1-7.00976,1.24951,14.932,14.932,0,0,1-6.835-1.49219,10.92507,10.92507,0,0,1-4.5459-4.12939,11.15492,11.15492,0,0,1-1.59668-5.89893,9.87422,9.87422,0,0,1,3.67871-8.15429q3.67675-2.94873,10.41015-3.019h10.82618v-.97119a6.25176,6.25176,0,0,0-2.15137-5.0664q-2.15185-1.804-6.24609-1.8042a21.44791,21.44791,0,0,0-11.03418,3.46972l-3.2627-6.2456a41.11622,41.11622,0,0,1,7.94629-3.50489,29.14593,29.14593,0,0,1,8.36328-1.07568q7.21583,0,11.208,3.47022,3.98877,3.47094,4.05957,9.71582l.06934,24.28955Zm-3.19238-8.3628a6.396,6.396,0,0,0,3.123-4.54541v-3.33105h-9.36914a10.18986,10.18986,0,0,0-5.30957,1.07568,3.83185,3.83185,0,0,0-1.7002,3.5044,4.51145,4.51145,0,0,0,1.76953,3.74756,7.6133,7.6133,0,0,0,4.82324,1.38818A11.78809,11.78809,0,0,0,1149.34668,601.24609Z"></path><path class="g" d="M1179.67383,558.04541a5.40129,5.40129,0,0,1,1.457,3.88623,5.308,5.308,0,0,1-1.457,3.8169,5.1939,5.1939,0,0,1-7.35645,0,5.308,5.308,0,0,1-1.457-3.8169,5.40129,5.40129,0,0,1,1.457-3.88623,5.19388,5.19388,0,0,1,7.35645,0Zm-8.12012,14.43506h9.02246v37.12842h-9.02246Z"></path><path class="g" d="M1224.15723,575.98486q3.67823,3.85181,3.67871,10.44483v23.1792h-9.0918v-20.542a8.37451,8.37451,0,0,0-2.2207-6.14209,8.08994,8.08994,0,0,0-6.03711-2.25537,9.15012,9.15012,0,0,0-7.11328,3.05371,11.19272,11.19272,0,0,0-2.60254,7.63379v18.252h-9.02246V572.48047h9.02246v6.93994q3.81591-7.147,13.32422-7.28711Q1220.47852,572.1333,1224.15723,575.98486Z"></path><path class="g" d="M1259.89746,609.60889v-4.51075a12.16713,12.16713,0,0,1-4.99707,3.67774,18.39076,18.39076,0,0,1-7.00976,1.24951,14.932,14.932,0,0,1-6.835-1.49219,10.92511,10.92511,0,0,1-4.54589-4.12939,11.15492,11.15492,0,0,1-1.59668-5.89893,9.87422,9.87422,0,0,1,3.67871-8.15429q3.67676-2.94873,10.41015-3.019h10.82618v-.97119a6.25176,6.25176,0,0,0-2.15137-5.0664q-2.15186-1.804-6.2461-1.8042a21.448,21.448,0,0,0-11.03418,3.46972l-3.26269-6.2456a41.11622,41.11622,0,0,1,7.94629-3.50489,29.14593,29.14593,0,0,1,8.36328-1.07568q7.21582,0,11.208,3.47022,3.98877,3.47094,4.05957,9.71582l.06933,24.28955Zm-3.19238-8.3628a6.396,6.396,0,0,0,3.12305-4.54541v-3.33105H1250.459a10.18988,10.18988,0,0,0-5.30957,1.07568,3.83186,3.83186,0,0,0-1.70019,3.5044,4.51145,4.51145,0,0,0,1.76953,3.74756,7.61328,7.61328,0,0,0,4.82324,1.38818A11.78809,11.78809,0,0,0,1256.70508,601.24609Z"></path><path class="g" d="M1309.96777,574.59717a16.16876,16.16876,0,0,1,6.17578,6.69678,21.61254,21.61254,0,0,1,2.18653,9.92431,21.31728,21.31728,0,0,1-2.15137,9.78516,15.86376,15.86376,0,0,1-6.10742,6.59277,17.52941,17.52941,0,0,1-9.16016,2.35986,15.94407,15.94407,0,0,1-7.35644-1.63085,13.83347,13.83347,0,0,1-5.27442-4.75391v6.0376h-9.02148V558.11475h9.02148V578.5874a13.40017,13.40017,0,0,1,5.16993-4.7539,15.75007,15.75007,0,0,1,7.32226-1.63086A17.52582,17.52582,0,0,1,1309.96777,574.59717Zm-3.71289,24.42822a11.44833,11.44833,0,0,0,2.91407-8.085,11.32611,11.32611,0,0,0-2.91407-8.05029,10.63868,10.63868,0,0,0-15.05957,0,12.66931,12.66931,0,0,0,0,16.16992,9.8721,9.8721,0,0,0,7.56446,3.12305A9.73793,9.73793,0,0,0,1306.25488,599.02539Z"></path><path class="g" d="M1326.52051,558.11475h9.02148v51.49414h-9.02148Z"></path><path class="g" d="M1375.96582,577.269q4.4751,5.06616,4.47559,14.22657,0,1.80541-.06934,2.70654H1352.96a10.34117,10.34117,0,0,0,10.61817,8.4668,14.10841,14.10841,0,0,0,5.44726-1.07569,13.30828,13.30828,0,0,0,4.5459-3.08838l4.85742,5.06641a18.79488,18.79488,0,0,1-6.76562,4.71924,22.76671,22.76671,0,0,1-8.84864,1.66552,20.64452,20.64452,0,0,1-10.02832-2.35986,16.48906,16.48906,0,0,1-6.69726-6.62744,21.54555,21.54555,0,0,1,.03515-19.6748,16.94352,16.94352,0,0,1,6.69727-6.69678,19.77907,19.77907,0,0,1,9.78516-2.39453Q1371.48779,572.20264,1375.96582,577.269Zm-3.78223,10.89551a9.01037,9.01037,0,0,0-2.707-6.52344,10.55138,10.55138,0,0,0-13.42871-.03466,10.578,10.578,0,0,0-3.29687,6.5581Z"></path><path class="g" d="M1405.56348,561.0293h9.29882v48.57959h-9.29882Z"></path><path class="g" d="M1458.86133,575.98486q3.67823,3.85181,3.67871,10.44483v23.1792h-9.0918v-20.542a8.37451,8.37451,0,0,0-2.2207-6.14209,8.08992,8.08992,0,0,0-6.03711-2.25537,9.15012,9.15012,0,0,0-7.11328,3.05371,11.19272,11.19272,0,0,0-2.60254,7.63379v18.252h-9.02246V572.48047h9.02246v6.93994q3.81591-7.147,13.32422-7.28711Q1455.18262,572.1333,1458.86133,575.98486Z"></path><path class="g" d="M1466.00977,572.5498l9.43847-.06933,9.71582,28.24512,9.50782-28.24512h9.09082l-14.15723,37.12842h-9.29981Z"></path><path class="g" d="M1536.48438,577.269q4.47508,5.06616,4.47558,14.22657,0,1.80541-.06933,2.70654h-27.41211a10.34117,10.34117,0,0,0,10.61816,8.4668,14.10849,14.10849,0,0,0,5.44727-1.07569,13.30814,13.30814,0,0,0,4.54589-3.08838l4.85743,5.06641a18.795,18.795,0,0,1-6.76563,4.71924,22.76666,22.76666,0,0,1-8.84863,1.66552,20.64447,20.64447,0,0,1-10.02832-2.35986,16.48914,16.48914,0,0,1-6.69727-6.62744,21.54559,21.54559,0,0,1,.03516-19.6748,16.94349,16.94349,0,0,1,6.69726-6.69678,19.77912,19.77912,0,0,1,9.78516-2.39453Q1532.00635,572.20264,1536.48438,577.269Zm-3.78223,10.89551a9.01041,9.01041,0,0,0-2.707-6.52344,10.55138,10.55138,0,0,0-13.42871-.03466,10.578,10.578,0,0,0-3.29688,6.5581Z"></path><path class="g" d="M1565.14551,580.04492a17.89539,17.89539,0,0,0-5.3086-.90234,7.15906,7.15906,0,0,0-3.64355.79834,2.66262,2.66262,0,0,0-1.35352,2.46338,2.92037,2.92037,0,0,0,1.7002,2.67187,27.34,27.34,0,0,0,5.37891,1.978,51.90246,51.90246,0,0,1,6.38378,2.32471,12.03166,12.03166,0,0,1,4.3379,3.40088,9.1,9.1,0,0,1,1.83886,5.93359,9.55362,9.55362,0,0,1-4.16406,8.32764,17.83958,17.83958,0,0,1-10.47852,2.915,26.58387,26.58387,0,0,1-8.39746-1.35351,19.77,19.77,0,0,1-6.94043-3.85156l3.123-6.31543a18.26783,18.26783,0,0,0,5.96875,3.36572,19.95174,19.95174,0,0,0,6.59277,1.21484,7.90872,7.90872,0,0,0,3.99024-.86767,2.82326,2.82326,0,0,0,1.49219-2.60254,3.145,3.145,0,0,0-1.73536-2.91455,30.70946,30.70946,0,0,0-5.62109-2.15137,47.76607,47.76607,0,0,1-6.10742-2.186,11.03338,11.03338,0,0,1-4.09375-3.26172,8.93566,8.93566,0,0,1-1.73535-5.72559,9.67126,9.67126,0,0,1,3.99023-8.36279,16.70379,16.70379,0,0,1,10.02832-2.87989,25.81212,25.81212,0,0,1,7.252,1.041,22.53216,22.53216,0,0,1,6.35059,2.91455l-3.26172,6.52393A26.71988,26.71988,0,0,0,1565.14551,580.04492Z"></path><path class="g" d="M1603.90332,607.31885a17.61114,17.61114,0,0,1-9.29883,2.70654,11.125,11.125,0,0,1-7.84179-2.81055q-3.05567-2.811-3.05372-8.29345V580.6001h-5.20507l-.06934-6.59278h5.27441V563.80566h8.95215v10.20166h10.61817v6.59278h-10.61817v16.7251a5.40709,5.40709,0,0,0,.97168,3.64355,3.728,3.728,0,0,0,2.915,1.07568,12.93131,12.93131,0,0,0,5.27442-1.52685Z"></path><path class="g" d="M1669.55566,575.98486q3.60792,3.85181,3.6084,10.44483v23.1792h-9.09082v-20.542a8.54667,8.54667,0,0,0-2.18652-6.21142,7.88221,7.88221,0,0,0-5.93359-2.25537,8.91019,8.91019,0,0,0-6.83594,3.123,11.27864,11.27864,0,0,0-2.53321,7.56446v18.32129h-9.09082v-20.542a8.6343,8.6343,0,0,0-2.15136-6.21142,7.76783,7.76783,0,0,0-5.89942-2.25537,8.98357,8.98357,0,0,0-6.90429,3.123,11.27864,11.27864,0,0,0-2.53321,7.56446v18.32129h-9.02246V572.48047h9.02246v6.8706q3.67675-7.07885,13.04688-7.21777a13.80263,13.80263,0,0,1,8.15429,2.32471,12.18362,12.18362,0,0,1,4.61524,6.55859q3.53905-8.74439,13.81055-8.8833Q1665.94531,572.1333,1669.55566,575.98486Z"></path><path class="g" d="M1712.06152,577.269q4.4751,5.06616,4.47559,14.22657,0,1.80541-.06934,2.70654h-27.41211a10.34117,10.34117,0,0,0,10.61817,8.4668,14.10841,14.10841,0,0,0,5.44726-1.07569,13.30818,13.30818,0,0,0,4.5459-3.08838l4.85742,5.06641a18.79488,18.79488,0,0,1-6.76562,4.71924,22.76666,22.76666,0,0,1-8.84863,1.66552,20.64447,20.64447,0,0,1-10.02832-2.35986,16.48908,16.48908,0,0,1-6.69727-6.62744,21.54559,21.54559,0,0,1,.03516-19.6748,16.94349,16.94349,0,0,1,6.69726-6.69678,19.77912,19.77912,0,0,1,9.78516-2.39453Q1707.5835,572.20264,1712.06152,577.269Zm-3.78222,10.89551a9.01041,9.01041,0,0,0-2.707-6.52344,10.5514,10.5514,0,0,0-13.42872-.03466,10.578,10.578,0,0,0-3.29687,6.5581Z"></path><path class="g" d="M1756.71875,575.98486q3.67823,3.85181,3.67871,10.44483v23.1792h-9.0918v-20.542a8.37451,8.37451,0,0,0-2.2207-6.14209,8.08992,8.08992,0,0,0-6.03711-2.25537,9.15013,9.15013,0,0,0-7.11328,3.05371,11.19272,11.19272,0,0,0-2.60254,7.63379v18.252h-9.02246V572.48047h9.02246v6.93994q3.81592-7.147,13.32422-7.28711Q1753.04,572.1333,1756.71875,575.98486Z"></path><path class="g" d="M1792.25,607.31885a17.61114,17.61114,0,0,1-9.29883,2.70654,11.125,11.125,0,0,1-7.84179-2.81055q-3.05567-2.811-3.05372-8.29345V580.6001h-5.20507l-.06934-6.59278h5.27441V563.80566h8.95215v10.20166H1791.626v6.59278h-10.61817v16.7251a5.407,5.407,0,0,0,.97168,3.64355,3.728,3.728,0,0,0,2.915,1.07568,12.93131,12.93131,0,0,0,5.27442-1.52685Z"></path><path class="g" d="M1815.74121,580.04492a17.89538,17.89538,0,0,0-5.30859-.90234,7.1591,7.1591,0,0,0-3.64356.79834,2.66262,2.66262,0,0,0-1.35351,2.46338,2.92036,2.92036,0,0,0,1.70019,2.67187,27.34,27.34,0,0,0,5.37891,1.978,51.90329,51.90329,0,0,1,6.38379,2.32471,12.03163,12.03163,0,0,1,4.33789,3.40088,9.1,9.1,0,0,1,1.83887,5.93359,9.55363,9.55363,0,0,1-4.16407,8.32764,17.83957,17.83957,0,0,1-10.47851,2.915,26.58383,26.58383,0,0,1-8.39746-1.35351,19.76987,19.76987,0,0,1-6.94043-3.85156l3.123-6.31543a18.26783,18.26783,0,0,0,5.96875,3.36572,19.95179,19.95179,0,0,0,6.59278,1.21484,7.90868,7.90868,0,0,0,3.99023-.86767,2.82326,2.82326,0,0,0,1.49219-2.60254,3.14494,3.14494,0,0,0-1.73535-2.91455,30.70963,30.70963,0,0,0-5.6211-2.15137,47.76664,47.76664,0,0,1-6.10742-2.186,11.03346,11.03346,0,0,1-4.09375-3.26172,8.93572,8.93572,0,0,1-1.73535-5.72559,9.67126,9.67126,0,0,1,3.99023-8.36279,16.70379,16.70379,0,0,1,10.02832-2.87989,25.81219,25.81219,0,0,1,7.252,1.041,22.53223,22.53223,0,0,1,6.35058,2.91455l-3.26171,6.52393A26.71973,26.71973,0,0,0,1815.74121,580.04492Z"></path><path class="g" d="M1885.45215,611.20508l-7.35547-7.28711q-6.52442,6.10767-14.43555,6.10742a17.65521,17.65521,0,0,1-7.94629-1.77,13.86851,13.86851,0,0,1-5.62109-4.92724,12.78617,12.78617,0,0,1-2.04687-7.11329,11.12765,11.12765,0,0,1,2.74121-7.66845,27.03576,27.03576,0,0,1,7.52929-5.65625,28.6718,28.6718,0,0,1-3.36523-5.86426,13.9318,13.9318,0,0,1-1.07617-5.23926,10.21792,10.21792,0,0,1,3.53906-8.08545q3.54052-3.08715,9.43848-3.08789a15.83676,15.83676,0,0,1,6.59277,1.31836,10.43207,10.43207,0,0,1,4.51074,3.71289,9.5949,9.5949,0,0,1,1.59668,5.44776,9.93156,9.93156,0,0,1-3.05371,7.46044,34.79127,34.79127,0,0,1-8.60547,5.72559q4.02393,4.44214,9.43848,9.78516a38.02728,38.02728,0,0,0,4.02539-8.4668l5.89844,4.37207a38.17283,38.17283,0,0,1-4.85743,9.022l7.70313,7.49512Zm-12.21387-12.07569q-7.07812-7.00854-11.24219-11.728a18.82043,18.82043,0,0,0-4.78906,3.71289,6.50316,6.50316,0,0,0-1.665,4.40674,7.07119,7.07119,0,0,0,2.42871,5.55175,8.77229,8.77229,0,0,0,6.03711,2.15137Q1868.79639,603.22412,1873.23828,599.12939Zm-8.95215-19.3623a26.294,26.294,0,0,0,5.96778-3.99023,6.24749,6.24749,0,0,0,2.082-4.68457,4.592,4.592,0,0,0-1.49219-3.57374,5.61179,5.61179,0,0,0-3.9209-1.35351,5.83751,5.83751,0,0,0-4.26758,1.59619,5.39579,5.39579,0,0,0-1.63086,4.02539Q1861.02441,575.18726,1864.28613,579.76709Z"></path><path class="g" d="M1947.668,565.40186q5.03027,4.37182,5.03125,12.353,0,8.32764-5.03125,12.94287-5.0332,4.61572-14.19238,4.61475h-10.61817v14.29639h-9.29883V561.0293h19.917Q1942.63672,561.0293,1947.668,565.40186Zm-6.59277,19.43164q2.80956-2.29029,2.81054-6.80127,0-4.44068-2.81054-6.66211-2.811-2.22071-8.085-2.22071h-10.13281v17.97413h10.13281Q1938.26368,587.12354,1941.0752,584.8335Z"></path><path class="g" d="M1981.98535,609.60889v-4.51075a12.16713,12.16713,0,0,1-4.99707,3.67774,18.39076,18.39076,0,0,1-7.00976,1.24951,14.93205,14.93205,0,0,1-6.835-1.49219,10.92511,10.92511,0,0,1-4.54589-4.12939,11.15492,11.15492,0,0,1-1.59668-5.89893,9.87422,9.87422,0,0,1,3.67871-8.15429q3.67675-2.94873,10.41015-3.019H1981.916v-.97119a6.25176,6.25176,0,0,0-2.15137-5.0664q-2.15186-1.804-6.2461-1.8042a21.4479,21.4479,0,0,0-11.03417,3.46972l-3.2627-6.2456a41.11622,41.11622,0,0,1,7.94629-3.50489,29.14593,29.14593,0,0,1,8.36328-1.07568q7.21582,0,11.208,3.47022,3.98877,3.47094,4.05957,9.71582l.06933,24.28955Zm-3.19238-8.3628a6.396,6.396,0,0,0,3.123-4.54541v-3.33105h-9.36914a10.18992,10.18992,0,0,0-5.30958,1.07568,3.83186,3.83186,0,0,0-1.70019,3.5044,4.51145,4.51145,0,0,0,1.76953,3.74756,7.61328,7.61328,0,0,0,4.82324,1.38818A11.78809,11.78809,0,0,0,1978.793,601.24609Z"></path><path class="g" d="M2015.12305,574.11133a15.01166,15.01166,0,0,1,7.52929-1.978v8.74414q-5.76123-.34644-9.19531,2.67188a10.30648,10.30648,0,0,0-3.43457,8.15478v17.90479H2001V572.48047h9.02246v7.148A13.4103,13.4103,0,0,1,2015.12305,574.11133Z"></path><path class="g" d="M2050.68945,607.31885a17.6111,17.6111,0,0,1-9.29882,2.70654,11.125,11.125,0,0,1-7.8418-2.81055q-3.05567-2.811-3.05371-8.29345V580.6001H2025.29l-.06934-6.59278h5.27442V563.80566h8.95215v10.20166h10.61816v6.59278h-10.61816v16.7251a5.407,5.407,0,0,0,.97168,3.64355,3.728,3.728,0,0,0,2.915,1.07568,12.93131,12.93131,0,0,0,5.27442-1.52685Z"></path><path class="g" d="M2090.17676,575.98486q3.67823,3.85181,3.67871,10.44483v23.1792h-9.0918v-20.542a8.37451,8.37451,0,0,0-2.2207-6.14209,8.08994,8.08994,0,0,0-6.03711-2.25537,9.15012,9.15012,0,0,0-7.11328,3.05371,11.19272,11.19272,0,0,0-2.60254,7.63379v18.252h-9.02246V572.48047H2066.79v6.93994q3.81591-7.147,13.32422-7.28711Q2086.49805,572.1333,2090.17676,575.98486Z"></path><path class="g" d="M2132.82227,577.269q4.47508,5.06616,4.47558,14.22657,0,1.80541-.06933,2.70654h-27.41211a10.34117,10.34117,0,0,0,10.61816,8.4668,14.10849,14.10849,0,0,0,5.44727-1.07569,13.30814,13.30814,0,0,0,4.54589-3.08838l4.85743,5.06641a18.795,18.795,0,0,1-6.76563,4.71924,22.76666,22.76666,0,0,1-8.84863,1.66552,20.64447,20.64447,0,0,1-10.02832-2.35986,16.48914,16.48914,0,0,1-6.69727-6.62744,21.54559,21.54559,0,0,1,.03516-19.6748,16.94349,16.94349,0,0,1,6.69726-6.69678,19.77912,19.77912,0,0,1,9.78516-2.39453Q2128.34424,572.20264,2132.82227,577.269ZM2129.04,588.16455a9.01037,9.01037,0,0,0-2.707-6.52344,10.55138,10.55138,0,0,0-13.42871-.03466,10.578,10.578,0,0,0-3.29688,6.5581Z"></path><path class="g" d="M2159.19336,574.11133a15.01172,15.01172,0,0,1,7.5293-1.978v8.74414q-5.76123-.34644-9.19532,2.67188a10.30648,10.30648,0,0,0-3.43457,8.15478v17.90479h-9.02246V572.48047h9.02246v7.148A13.41036,13.41036,0,0,1,2159.19336,574.11133Z"></path><path class="g" d="M2189.45117,580.04492a17.89538,17.89538,0,0,0-5.30859-.90234,7.1591,7.1591,0,0,0-3.64356.79834,2.66262,2.66262,0,0,0-1.35351,2.46338,2.92036,2.92036,0,0,0,1.70019,2.67187,27.34027,27.34027,0,0,0,5.37891,1.978,51.90329,51.90329,0,0,1,6.38379,2.32471,12.03163,12.03163,0,0,1,4.33789,3.40088,9.09994,9.09994,0,0,1,1.83887,5.93359,9.55363,9.55363,0,0,1-4.16407,8.32764,17.83957,17.83957,0,0,1-10.47851,2.915,26.58383,26.58383,0,0,1-8.39746-1.35351,19.76987,19.76987,0,0,1-6.94043-3.85156l3.123-6.31543a18.26783,18.26783,0,0,0,5.96875,3.36572,19.95179,19.95179,0,0,0,6.59278,1.21484,7.90865,7.90865,0,0,0,3.99023-.86767,2.82326,2.82326,0,0,0,1.49219-2.60254,3.14494,3.14494,0,0,0-1.73535-2.91455,30.70963,30.70963,0,0,0-5.6211-2.15137,47.76664,47.76664,0,0,1-6.10742-2.186,11.03346,11.03346,0,0,1-4.09375-3.26172,8.93572,8.93572,0,0,1-1.73535-5.72559,9.67124,9.67124,0,0,1,3.99024-8.36279,16.70377,16.70377,0,0,1,10.02832-2.87989,25.81217,25.81217,0,0,1,7.25195,1.041,22.53223,22.53223,0,0,1,6.35058,2.91455l-3.26171,6.52393A26.71973,26.71973,0,0,0,2189.45117,580.04492Z"></path><path class="g" d="M2239.31445,575.98486q3.67677,3.85181,3.67774,10.44483v23.1792h-9.09082v-20.542a8.37848,8.37848,0,0,0-2.22071-6.14209,8.09372,8.09372,0,0,0-6.03808-2.25537,9.26219,9.26219,0,0,0-7.14844,3.05371,11.09928,11.09928,0,0,0-2.63672,7.63379v18.252h-9.02148V558.11475h9.02148v21.44433q3.81593-7.28686,13.39356-7.42578Q2235.63623,572.1333,2239.31445,575.98486Z"></path><path class="g" d="M2261.24414,558.04541a5.40129,5.40129,0,0,1,1.457,3.88623,5.308,5.308,0,0,1-1.457,3.8169,5.19389,5.19389,0,0,1-7.35644,0,5.30805,5.30805,0,0,1-1.457-3.8169,5.40129,5.40129,0,0,1,1.457-3.88623,5.19386,5.19386,0,0,1,7.35644,0Zm-8.12012,14.43506h9.02246v37.12842H2253.124Z"></path><path class="g" d="M2304.375,574.59717a16.16876,16.16876,0,0,1,6.17578,6.69678,21.61254,21.61254,0,0,1,2.18652,9.92431,21.31728,21.31728,0,0,1-2.15136,9.78516,15.86376,15.86376,0,0,1-6.10742,6.59277,17.52941,17.52941,0,0,1-9.16016,2.35986,15.94411,15.94411,0,0,1-7.35645-1.63085,13.83352,13.83352,0,0,1-5.27441-4.75391v19.501H2273.666v-50.5918h9.02148v6.10693a13.40014,13.40014,0,0,1,5.16992-4.7539,15.75014,15.75014,0,0,1,7.32227-1.63086A17.52585,17.52585,0,0,1,2304.375,574.59717Zm-3.71289,24.42822a11.44832,11.44832,0,0,0,2.91406-8.085,11.3261,11.3261,0,0,0-2.91406-8.05029,10.63868,10.63868,0,0,0-15.05957,0,12.66931,12.66931,0,0,0,0,16.16992,9.87208,9.87208,0,0,0,7.56445,3.12305A9.738,9.738,0,0,0,2300.66211,599.02539Z"></path><path class="g" d="M2336.99219,580.04492a17.89539,17.89539,0,0,0-5.3086-.90234,7.15906,7.15906,0,0,0-3.64355.79834,2.66262,2.66262,0,0,0-1.35352,2.46338,2.92037,2.92037,0,0,0,1.7002,2.67187,27.34,27.34,0,0,0,5.37891,1.978,51.90246,51.90246,0,0,1,6.38378,2.32471,12.03155,12.03155,0,0,1,4.33789,3.40088,9.09994,9.09994,0,0,1,1.83887,5.93359,9.55362,9.55362,0,0,1-4.16406,8.32764,17.83958,17.83958,0,0,1-10.47852,2.915,26.58387,26.58387,0,0,1-8.39746-1.35351,19.77,19.77,0,0,1-6.94043-3.85156l3.12305-6.31543a18.26783,18.26783,0,0,0,5.96875,3.36572,19.95174,19.95174,0,0,0,6.59277,1.21484,7.90872,7.90872,0,0,0,3.99024-.86767,2.82326,2.82326,0,0,0,1.49219-2.60254,3.145,3.145,0,0,0-1.73536-2.91455,30.70946,30.70946,0,0,0-5.62109-2.15137,47.76607,47.76607,0,0,1-6.10742-2.186,11.03338,11.03338,0,0,1-4.09375-3.26172,8.93566,8.93566,0,0,1-1.73535-5.72559,9.67126,9.67126,0,0,1,3.99023-8.36279,16.70379,16.70379,0,0,1,10.02832-2.87989,25.81212,25.81212,0,0,1,7.25195,1.041,22.53216,22.53216,0,0,1,6.35059,2.91455l-3.26172,6.52393A26.71988,26.71988,0,0,0,2336.99219,580.04492Z"></path><path class="g" d="M991.292,649.92969a4.44593,4.44593,0,0,0-1.35351,3.53955v3.81689h9.2998v6.59278h-9.2998V692.8877H980.917V663.87891h-4.8584v-6.59278h4.8584v-3.53955a12.87744,12.87744,0,0,1,1.80371-6.97461,11.49538,11.49538,0,0,1,4.82325-4.3374,14.88647,14.88647,0,0,1,6.55859-1.45752,15.58981,15.58981,0,0,1,6.80078,1.59619l-1.5957,7.28711a12.9722,12.9722,0,0,0-4.58008-1.11035A5.03986,5.03986,0,0,0,991.292,649.92969Z"></path><path class="g" d="M1030.294,657.84131a17.08215,17.08215,0,0,1,6.87109,6.62744,19.29577,19.29577,0,0,1,2.46387,9.81982,19.62592,19.62592,0,0,1-2.46387,9.92432,17.00506,17.00506,0,0,1-6.87109,6.66211,21.205,21.205,0,0,1-10.167,2.35986,21.55605,21.55605,0,0,1-10.2705-2.35986,16.93487,16.93487,0,0,1-6.90528-6.66211,19.616,19.616,0,0,1-2.46387-9.92432,19.286,19.286,0,0,1,2.46387-9.81982,17.01128,17.01128,0,0,1,6.90528-6.62744,21.57311,21.57311,0,0,1,10.2705-2.35986A21.22178,21.22178,0,0,1,1030.294,657.84131Zm-17.80079,8.46631a12.76982,12.76982,0,0,0,0,16.23974,9.95667,9.95667,0,0,0,7.63379,3.123,9.79137,9.79137,0,0,0,7.49512-3.123,12.76651,12.76651,0,0,0,0-16.23974,9.79266,9.79266,0,0,0-7.49512-3.12256A9.958,9.958,0,0,0,1012.49316,666.30762Z"></path><path class="g" d="M1061.59277,657.39014a15.01152,15.01152,0,0,1,7.5293-1.978v8.74414q-5.76123-.34644-9.19531,2.67188a10.30648,10.30648,0,0,0-3.43457,8.15478V692.8877h-9.02246V655.75928h9.02246v7.148A13.41034,13.41034,0,0,1,1061.59277,657.39014Z"></path><path class="g" d="M1128.73535,692.8877l-4.30273-10.271h-23.73438l-4.30273,10.271H1086.749l21.30567-48.57959h9.64648l21.02735,48.57959Zm-24.70605-18.252h17.07226l-8.46679-20.40332Z"></path><path class="g" d="M1175.33691,657.876a16.16889,16.16889,0,0,1,6.17579,6.69677,21.61271,21.61271,0,0,1,2.18652,9.92432,21.31715,21.31715,0,0,1-2.15137,9.78516,15.86375,15.86375,0,0,1-6.10742,6.59277,17.52941,17.52941,0,0,1-9.16016,2.35986,15.944,15.944,0,0,1-7.35644-1.63086,13.83337,13.83337,0,0,1-5.27442-4.7539v6.0376h-9.02148V641.39355h9.02148v20.47266a13.40027,13.40027,0,0,1,5.16993-4.75391,15.75019,15.75019,0,0,1,7.32226-1.63085A17.52582,17.52582,0,0,1,1175.33691,657.876ZM1171.624,682.3042a11.44833,11.44833,0,0,0,2.91407-8.085,11.32611,11.32611,0,0,0-2.91407-8.05029,10.63868,10.63868,0,0,0-15.05957,0,12.66931,12.66931,0,0,0,0,16.16992,9.8721,9.8721,0,0,0,7.56446,3.123A9.73792,9.73792,0,0,0,1171.624,682.3042Z"></path><path class="g" d="M1225.82422,655.75928V692.8877h-9.09082v-6.87061q-3.74853,7.21875-12.9082,7.21777-6.2461,0-9.8545-3.81689-3.60937-3.81592-3.60937-10.41016V655.75928h9.0918v20.61133a8.48409,8.48409,0,0,0,2.11621,6.10742,7.71394,7.71394,0,0,0,5.86425,2.2207,8.593,8.593,0,0,0,6.80079-3.05371,11.37889,11.37889,0,0,0,2.499-7.56445V655.75928Z"></path><path class="g" d="M1232.34766,699.13379a4.01184,4.01184,0,0,0,3.50488-1.49219,7.30022,7.30022,0,0,0,1.21387-4.5459V655.75928h9.02246v38.72461q0,5.75976-3.08887,8.9873-3.08789,3.22706-8.57031,3.22705a18.92592,18.92592,0,0,1-7.21778-1.38818l1.94336-6.80127A11.18329,11.18329,0,0,0,1232.34766,699.13379Zm12.83886-57.80957a5.40127,5.40127,0,0,1,1.457,3.88623,5.308,5.308,0,0,1-1.457,3.81689,5.19386,5.19386,0,0,1-7.35644,0,5.308,5.308,0,0,1-1.457-3.81689,5.40127,5.40127,0,0,1,1.457-3.88623,5.19386,5.19386,0,0,1,7.35644,0Z"></path><path class="g" d="M1278.70605,692.8877V688.377a12.16707,12.16707,0,0,1-4.99707,3.67774,18.39076,18.39076,0,0,1-7.00976,1.24951,14.932,14.932,0,0,1-6.835-1.49219,10.92513,10.92513,0,0,1-4.5459-4.12939,11.155,11.155,0,0,1-1.59668-5.89893,9.87427,9.87427,0,0,1,3.67871-8.1543q3.67676-2.94873,10.41016-3.019h10.82617v-.97119a6.25175,6.25175,0,0,0-2.15137-5.06641q-2.15185-1.80394-6.24609-1.8042a21.448,21.448,0,0,0-11.03418,3.46973l-3.2627-6.2456a41.11622,41.11622,0,0,1,7.94629-3.50489,29.14593,29.14593,0,0,1,8.36328-1.07568q7.21582,0,11.208,3.47021,3.98877,3.471,4.05957,9.71582l.06934,24.28956Zm-3.19238-8.3628a6.396,6.396,0,0,0,3.123-4.54541v-3.33105h-9.36914a10.18978,10.18978,0,0,0-5.30957,1.07568,3.83184,3.83184,0,0,0-1.7002,3.5044,4.51145,4.51145,0,0,0,1.76953,3.74755,7.61331,7.61331,0,0,0,4.82325,1.38819A11.78813,11.78813,0,0,0,1275.51367,684.5249Z"></path><path class="g" d="M1348.3125,647.39648a22.69822,22.69822,0,0,1,9.02148,8.64014,24.33939,24.33939,0,0,1,3.26172,12.56152,23.95007,23.95007,0,0,1-3.29687,12.52637,23.11957,23.11957,0,0,1-9.126,8.64014,27.62424,27.62424,0,0,1-13.25488,3.12305h-19.84766V644.30811h20.19434A27.18562,27.18562,0,0,1,1348.3125,647.39648Zm-4.82324,35.25489a14.52182,14.52182,0,0,0,5.58594-5.69092,17.96215,17.96215,0,0,0-.06934-16.65576,14.7356,14.7356,0,0,0-5.72559-5.75977,16.36216,16.36216,0,0,0-8.15429-2.04736h-10.75684v32.20117h11.10449A15.83772,15.83772,0,0,0,1343.48926,682.65137Z"></path><path class="g" d="M1397.2041,660.54785q4.4751,5.06616,4.47559,14.22656,0,1.80543-.06934,2.70655h-27.41211a10.34115,10.34115,0,0,0,10.61817,8.46679,14.10858,14.10858,0,0,0,5.44726-1.07568,13.30842,13.30842,0,0,0,4.5459-3.08838l4.85742,5.06641a18.79488,18.79488,0,0,1-6.76562,4.71924,22.76671,22.76671,0,0,1-8.84864,1.66552,20.64452,20.64452,0,0,1-10.02832-2.35986,16.48912,16.48912,0,0,1-6.69726-6.62744,21.54557,21.54557,0,0,1,.03515-19.67481,16.94356,16.94356,0,0,1,6.69727-6.69677,19.77907,19.77907,0,0,1,9.78516-2.39453Q1392.72608,655.48145,1397.2041,660.54785Zm-3.78222,10.89551a9.01038,9.01038,0,0,0-2.707-6.52344,10.5514,10.5514,0,0,0-13.42871-.03467,10.57808,10.57808,0,0,0-3.29687,6.55811Z"></path><path class="g" d="M1402.44336,655.82861l9.43848-.06933,9.71582,28.24511,9.50781-28.24511h9.09082l-14.15723,37.12842h-9.2998Z"></path><path class="g" d="M1472.918,660.54785q4.4751,5.06616,4.47558,14.22656,0,1.80543-.06933,2.70655h-27.41211a10.34115,10.34115,0,0,0,10.61816,8.46679,14.10863,14.10863,0,0,0,5.44727-1.07568,13.30842,13.30842,0,0,0,4.5459-3.08838l4.85742,5.06641a18.795,18.795,0,0,1-6.76563,4.71924,22.76662,22.76662,0,0,1-8.84863,1.66552,20.64452,20.64452,0,0,1-10.02832-2.35986,16.48912,16.48912,0,0,1-6.69726-6.62744,21.54557,21.54557,0,0,1,.03515-19.67481,16.94356,16.94356,0,0,1,6.69727-6.69677,19.77905,19.77905,0,0,1,9.78515-2.39453Q1468.43994,655.48145,1472.918,660.54785Zm-3.78223,10.89551a9.01037,9.01037,0,0,0-2.707-6.52344A10.5514,10.5514,0,0,0,1453,664.88525a10.57808,10.57808,0,0,0-3.29687,6.55811Z"></path><path class="g" d="M1485.51367,641.39355h9.02149V692.8877h-9.02149Z"></path><path class="g" d="M1532.5293,657.84131a17.08215,17.08215,0,0,1,6.87109,6.62744,19.29577,19.29577,0,0,1,2.46387,9.81982,19.62592,19.62592,0,0,1-2.46387,9.92432,17.00506,17.00506,0,0,1-6.87109,6.66211,21.205,21.205,0,0,1-10.167,2.35986,21.55605,21.55605,0,0,1-10.2705-2.35986,16.93493,16.93493,0,0,1-6.90528-6.66211,19.61606,19.61606,0,0,1-2.46386-9.92432,19.28606,19.28606,0,0,1,2.46386-9.81982,17.01134,17.01134,0,0,1,6.90528-6.62744,21.57311,21.57311,0,0,1,10.2705-2.35986A21.22178,21.22178,0,0,1,1532.5293,657.84131Zm-17.80078,8.46631a12.76978,12.76978,0,0,0,0,16.23974,9.95665,9.95665,0,0,0,7.63378,3.123,9.79136,9.79136,0,0,0,7.49512-3.123,12.76651,12.76651,0,0,0,0-16.23974,9.79264,9.79264,0,0,0-7.49512-3.12256A9.958,9.958,0,0,0,1514.72852,666.30762Z"></path><path class="g" d="M1580.76172,657.876a16.1688,16.1688,0,0,1,6.17578,6.69677,21.61258,21.61258,0,0,1,2.18652,9.92432,21.31728,21.31728,0,0,1-2.15136,9.78516,15.86378,15.86378,0,0,1-6.10743,6.59277,17.52938,17.52938,0,0,1-9.16015,2.35986,15.944,15.944,0,0,1-7.35645-1.63086,13.83334,13.83334,0,0,1-5.27441-4.7539v19.501h-9.02149V655.75928h9.02149v6.10693a13.40025,13.40025,0,0,1,5.16992-4.75391,15.75026,15.75026,0,0,1,7.32227-1.63085A17.52585,17.52585,0,0,1,1580.76172,657.876Zm-3.71289,24.42822a11.44832,11.44832,0,0,0,2.91406-8.085,11.3261,11.3261,0,0,0-2.91406-8.05029,10.63868,10.63868,0,0,0-15.05957,0,12.66931,12.66931,0,0,0,0,16.16992,9.87207,9.87207,0,0,0,7.56445,3.123A9.73794,9.73794,0,0,0,1577.04883,682.3042Z"></path><path class="g" d="M1655.53906,659.26367q3.60792,3.85181,3.6084,10.44483v23.1792h-9.09082v-20.542a8.54665,8.54665,0,0,0-2.18652-6.21142,7.88222,7.88222,0,0,0-5.9336-2.25537,8.91015,8.91015,0,0,0-6.83593,3.123,11.27864,11.27864,0,0,0-2.53321,7.56446V692.8877h-9.09082v-20.542a8.63428,8.63428,0,0,0-2.15136-6.21142,7.76785,7.76785,0,0,0-5.89942-2.25537,8.98355,8.98355,0,0,0-6.9043,3.123,11.27869,11.27869,0,0,0-2.5332,7.56446V692.8877h-9.02246V655.75928h9.02246v6.8706q3.67675-7.07886,13.04688-7.21777a13.80263,13.80263,0,0,1,8.15429,2.32471,12.18367,12.18367,0,0,1,4.61524,6.55859q3.53906-8.74438,13.81054-8.8833Q1651.92872,655.41211,1655.53906,659.26367Z"></path><path class="g" d="M1698.0459,660.54785q4.4751,5.06616,4.47558,14.22656,0,1.80543-.06933,2.70655H1675.04a10.34115,10.34115,0,0,0,10.61816,8.46679,14.10863,14.10863,0,0,0,5.44727-1.07568,13.30842,13.30842,0,0,0,4.5459-3.08838l4.85742,5.06641a18.795,18.795,0,0,1-6.76563,4.71924,22.76662,22.76662,0,0,1-8.84863,1.66552,20.64452,20.64452,0,0,1-10.02832-2.35986,16.48912,16.48912,0,0,1-6.69726-6.62744,21.54557,21.54557,0,0,1,.03515-19.67481,16.94349,16.94349,0,0,1,6.69727-6.69677,19.77905,19.77905,0,0,1,9.78515-2.39453Q1693.56787,655.48145,1698.0459,660.54785Zm-3.78223,10.89551a9.01037,9.01037,0,0,0-2.707-6.52344,10.5514,10.5514,0,0,0-13.42871-.03467,10.57814,10.57814,0,0,0-3.29688,6.55811Z"></path><path class="g" d="M1742.70215,659.26367q3.67822,3.85181,3.67871,10.44483v23.1792h-9.0918v-20.542a8.37451,8.37451,0,0,0-2.2207-6.14209,8.08988,8.08988,0,0,0-6.03711-2.25537,9.15008,9.15008,0,0,0-7.11328,3.05371,11.19272,11.19272,0,0,0-2.60254,7.63379v18.252H1710.293V655.75928h9.02246v6.93994q3.81592-7.147,13.32422-7.28711Q1739.02344,655.41211,1742.70215,659.26367Z"></path><path class="g" d="M1778.2334,690.59766a17.61114,17.61114,0,0,1-9.29883,2.70654,11.12505,11.12505,0,0,1-7.8418-2.81055q-3.05567-2.811-3.05371-8.29345V663.87891H1752.834l-.06933-6.59278h5.27441V647.08447h8.95215v10.20166h10.61817v6.59278h-10.61817V680.604a5.407,5.407,0,0,0,.97168,3.64356,3.728,3.728,0,0,0,2.915,1.07568,12.93124,12.93124,0,0,0,5.27441-1.52685Z"></path></svg>