<svg xmlns="http://www.w3.org/2000/svg" viewBox="0 0 150 65.11927"><defs><style>.a{fill:none;}.b{fill:#fff;}.c{fill:#3868b2;}.d{fill:#238e45;}.e{fill:#ec2027;}</style></defs><title>Ireti White Logo</title><path class="a" d="M54.80018,15.90522a3.99578,3.99578,0,0,1-.62676.51136A3.99578,3.99578,0,0,0,54.80018,15.90522Z"></path><path class="a" d="M31.90743,62.92784a2.91992,2.91992,0,0,1-.21649.24543A2.9032,2.9032,0,0,0,31.90743,62.92784Z"></path><path class="a" d="M51.54406,17.02428c-.11026-.01244-.22148-.0123-.33073-.03381C51.32258,17.012,51.43376,17.01184,51.54406,17.02428Z"></path><path class="a" d="M53.18211,16.86812a3.97691,3.97691,0,0,1-.44046.12832A3.98873,3.98873,0,0,0,53.18211,16.86812Z"></path><path class="a" d="M51.99412,17.06774a4.01135,4.01135,0,0,0,.42366-.04041,4.00011,4.00011,0,0,1-.43662.03914Z"></path><path class="a" d="M53.93667,16.54115A3.9718,3.9718,0,0,1,53.48,16.78,3.96223,3.96223,0,0,0,53.93667,16.54115Z"></path><polygon class="a" points="29.456 63.964 29.458 63.964 29.454 63.964 29.456 63.964"></polygon><path class="a" d="M31.02643,63.64532a2.80778,2.80778,0,0,1-.28478.13482A2.79518,2.79518,0,0,0,31.02643,63.64532Z"></path><path class="a" d="M31.50162,63.33152a2.87667,2.87667,0,0,1-.25407.19185A2.867,2.867,0,0,0,31.50162,63.33152Z"></path><path class="a" d="M30.49474,63.85824a2.75977,2.75977,0,0,1-.30852.07251A2.75316,2.75316,0,0,0,30.49474,63.85824Z"></path><path class="a" d="M29.7345,63.97735c.06336,0,.12287-.01488.18526-.01911a2.76757,2.76757,0,0,1-.457.006C29.554,63.973,29.64484,63.97735,29.7345,63.97735Z"></path><path class="a" d="M32.23083,62.44327a2.91246,2.91246,0,0,1-.1716.29866A2.89691,2.89691,0,0,0,32.23083,62.44327Z"></path><path class="a" d="M50.76676,16.85765c-.09952-.03185-.202-.05066-.29944-.09036C50.56475,16.807,50.6672,16.8258,50.76676,16.85765Z"></path><path class="a" d="M50.00972,16.52671c-.08059-.04555-.16628-.07775-.2443-.1292C49.84344,16.449,49.92913,16.48116,50.00972,16.52671Z"></path><path class="a" d="M32.45963,61.87371a2.90394,2.90394,0,0,1-.12064.36864A2.89758,2.89758,0,0,0,32.45963,61.87371Z"></path><path class="a" d="M32.5808,61.08856a2.90767,2.90767,0,0,1-.06357.59836A2.90775,2.90775,0,0,0,32.5808,61.08856Z"></path><path class="b" d="M67.69824,21.234H47.37634A1.54036,1.54036,0,0,0,45.836,22.77438V42.38294a1.54036,1.54036,0,0,0,1.54036,1.54037h5.76554a1.54039,1.54039,0,0,0,1.54037-1.54037V39.92641A1.54036,1.54036,0,0,1,56.22261,38.386h5.60306a1.54037,1.54037,0,0,1,1.21963.59954l3.3464,4.33819a1.54035,1.54035,0,0,0,1.21967.59954h5.51475a1.54038,1.54038,0,0,0,1.21627-2.4856L72.4288,38.97546a1.56373,1.56373,0,0,1,.28827-2.22572,8.56013,8.56013,0,0,0,2.18978-2.29729,8.271,8.271,0,0,0,1.36723-4.64229A8.56642,8.56642,0,0,0,67.69824,21.234Zm-2.5835,11.31092-.00088-.03337.0021.02089Zm1.72248-1.36749a1.85929,1.85929,0,0,1-1.36754.55721H56.22261a1.54035,1.54035,0,0,1-1.54036-1.54036V29.4091a1.54035,1.54035,0,0,1,1.54036-1.54036h9.57487a1.50752,1.50752,0,0,1,1.43809.988A2.08,2.08,0,0,1,66.83722,31.17744Z"></path><path class="b" d="M104.10756,21.251H80.45563a1.4518,1.4518,0,0,0-1.45175,1.45179V42.48853a1.4518,1.4518,0,0,0,1.45175,1.45179h23.65193a1.4518,1.4518,0,0,0,1.45179-1.45179V39.56771a1.4518,1.4518,0,0,0-1.45179-1.45179H89.3019a1.45177,1.45177,0,1,1,0-2.90354h14.80566a1.45177,1.45177,0,0,0,1.45179-1.45179V31.4137a1.45176,1.45176,0,0,0-1.45179-1.45175H89.3019a1.45179,1.45179,0,0,1,0-2.90358h14.80566a1.45176,1.45176,0,0,0,1.45179-1.45175V22.70278A1.4518,1.4518,0,0,0,104.10756,21.251Z"></path><path class="b" d="M136.66419,21.251H109.86372a1.54038,1.54038,0,0,0-1.54036,1.54036v4.11091a1.54036,1.54036,0,0,0,1.54036,1.54036h7.43685a1.54036,1.54036,0,0,1,1.54036,1.54036V42.4a1.54038,1.54038,0,0,0,1.54036,1.54036h5.76529A1.54038,1.54038,0,0,0,127.68694,42.4V29.983a1.54036,1.54036,0,0,1,1.54036-1.54036h7.43689a1.54036,1.54036,0,0,0,1.54036-1.54036V22.79135A1.54038,1.54038,0,0,0,136.66419,21.251Z"></path><rect class="b" x="141.15373" y="21.21704" width="8.84627" height="22.68929" rx="1.54036"></rect><path class="b" d="M26.78175,42.26305a5.82024,5.82024,0,0,0,11.64047,0V34.94876L26.78175,23.30816Z"></path><path class="b" d="M32.602,17.018a5.80566,5.80566,0,0,0-4.6792,2.36944L38.42222,29.887V22.83821A5.82022,5.82022,0,0,0,32.602,17.018Z"></path><path d="M45.90448,14.52974c.08368.06161.16733.12308.25.186q.33228.253.65434.51869l.092.07413.08128.06571c.2621.21977.52786.45355.79034.69514l.10769.10231.09223.08814.10646.10009c.1.09381.2.18757.29744.28408a5.1116,5.1116,0,0,0,3.61792,1.496A5.05734,5.05734,0,0,0,55.62853,9.5733a1.37244,1.37244,0,0,0-.11323-.12836c-.05868-.05808-.11754-.11332-.17649-.16851l-.10572-.09991q-.20451-.19785-.41275-.39221-.3584-.33475-.72694-.65783l-.09115-.08032c-.10515-.09285-.21035-.18566-.31716-.27658-.28111-.23915-.56742-.47153-.85617-.701l-.11576-.09354c-.06667-.05428-.13338-.10843-.20136-.16109-.40485-.31349-.8132-.61525-1.21374-.897-.05314-.0373-.10689-.07317-.16078-.1089l-.0959-.06444c-.33051-.22785-.66429-.45128-1.00348-.667-.10628-.06763-.21423-.13343-.32222-.19918l-.127-.07753c-.28317-.17379-.5683-.34456-.857-.50988-.16706-.09555-.33478-.18884-.503-.28129q-.42855-.23529-.86421-.45708L47.295,3.51612c-.14351-.07338-.287-.14668-.43191-.21759-.32113-.15707-.6464-.30685-.97328-.4535l-.14521-.06632c-.09019-.04149-.18042-.0829-.27174-.12234-.49473-.21367-.95888-.40185-1.419-.5752-.04188-.01579-.08455-.03062-.12731-.04528L43.86406,2.014c-.42711-.1579-.85226-.30546-1.26313-.43832-.11323-.03661-.22758-.071-.3419-.10524l-.15585-.047c-.32981-.10083-.66084-.19822-.99488-.28876-.18727-.05074-.3758-.09869-.56451-.14612q-.4845-.12192-.97507-.22906c-.19748-.04328-.383-.08386-.56978-.12121-.3494-.0699-.70116-.1319-1.05431-.19045L37.779.41947c-.11126-.01933-.22252-.03852-.3346-.05532-.56529-.08473-1.079-.14988-1.57034-.19922l-.02064-.0021L35.82113.16069,35.77854.15742c-.54233-.05284-1.04937-.091-1.5452-.11588C33.688.014,33.13671,0,32.59493,0s-1.093.014-1.63862.04154c-.49495.02487-1.00208.063-1.55013.11649L29.34073.163c-.55892.05559-1.11387.12837-1.77135.23108l-.09695.015-.22994.03626c-.55368.09237-1.10863.19983-1.64952.31951L25.3817.81355,25.281.8372c-.6005.13918-1.1335.27623-1.62941.4189l-.0559.01519c-.49264.14267-1.02385.31345-1.62151.52144l-.07959.02757-.23264.08159c-.51254.1843-.93685.34626-1.33538.50975-.04206.01723-.08212.03639-.12156.05663A32.86133,32.86133,0,0,0,15.03792,5.169l-.50421.324L14.527,5.48626l-.166.11776-.44251.28439.01732.01732-.147.10432A32.60653,32.60653,0,0,0,.19364,29.07083l-.00315.00375-.032.32784c-.03477.35625-.05786.71586-.08072,1.07539l-.00445.06968-.01121.14594c-.00672.08159-.01331.16323-.01763.24552C.017,31.46863.00257,32.00561.00157,32.53538L0,32.55453l0,.04023v.04311l.001.01269.0007.02073c.00083.51472.01527,1.05243.04276,1.58247.00428.08246.01086.16427.01763.24612l.01108.144.00393.06191c.023.36275.04629.72546.08137,1.08489l.03364.34439.00345.00388A32.55278,32.55278,0,0,0,5.71973,50.98649l.31881.46463-.00907.00908.16663.22051.25363.36965.01461-.01462.12758.16885A32.68946,32.68946,0,0,0,29.31586,65.02817l.0534.00537.02047.00074c.11977.01051.2329.01536.34477.01536a3.94446,3.94446,0,0,0,3.91858-3.96108V58.8514a3.9727,3.9727,0,0,0-3.55321-3.93472l-.14119-.01619c-.35743-.042-.7317-.0966-1.14467-.167-.07182-.01222-.14307-.02635-.21436-.04036l-.14752-.02853c-.25677-.04817-.51249-.09848-.76586-.15533-.12086-.0271-.24071-.05655-.36066-.086l-.05667-.01387q-.35114-.086-.69846-.18242c-.13957-.039-.27893-.07889-.41764-.12064-.2336-.07025-.46476-.14538-.695-.223l-.11562-.03875c-.0901-.03006-.18015-.06008-.26947-.092-.26187-.09368-.52061-.19416-.778-.29726L24.16,53.40284c-.04551-.01745-.09106-.03481-.136-.05349-.34665-.14416-.69012-.29713-1.02071-.45455l-.102-.05109-.11881-.05987c-.25965-.12718-.51795-.25773-.77236-.39486-.07784-.042-.15472-.08565-.23164-.12928l-.112-.06331c-.21052-.11833-.41986-.23875-.62641-.36367-.121-.07325-.241-.14834-.3607-.224q-.2978-.188-.58824-.38452c-.12775-.08635-.23788-.16074-.34661-.23723-.202-.14206-.40014-.28875-.597-.43719l-.11449-.08551c-.061-.04534-.122-.09063-.182-.13735q-.38745-.30212-.761-.621l-.06911-.057c-.29107-.24957-.55844-.49212-.84309-.76259-.04647-.04411-.09128-.08905-.13622-.1339l-.10485-.104c-.18334-.17941-.365-.36026-.542-.54574-.07439-.07793-.14712-.1572-.22-.23648l-.05973-.065a22.78165,22.78165,0,0,1-2.05369-2.57547l-.393-.57585-.35882-.60268a22.84465,22.84465,0,0,1-3.17624-11.43231l0-.02487-.00017-.00436.00021-.00851A22.69565,22.69565,0,0,1,20.736,13.55148l.63453-.39709.58274-.31572a22.168,22.168,0,0,1,8.00488-2.546c.33038-.03883.66455-.06453.99881-.08992.05795-.00441.11541-.01008.17287-.01584.04773-.0048.09542-.00986.14364-.01283.4463-.02762.891-.04162,1.3215-.04162s.87529.014,1.3216.04162c.05039.0031.10027.00838.15014.0134.05864.00589.11723.01164.17627.01614.33072.0253.66171.05061.98882.089.332.039.6895.09092,1.09288.15864.07181.01209.14332.02561.21488.03909l.11929.02226q.38031.06988.75683.15188.18226.04.36354.08277c.25528.06064.50874.12644.76084.19577l.12409.03351c.05859.01562.11719.0312.17531.04808.36978.10729.70582.21314,1.0273.32362l.05092.01871.08757.03212q.44019.15451.87.32575c.07815.03115.15516.06348.23221.09581l.0867.0363q.34464.14366.68326.29783c.11026.05031.21964.1004.3285.15223.24.11427.47742.23374.71281.35638l.11458.05864.12893.06654c.31654.16986.62641.34543.92123.52205l.09254.0576.09961.06234q.3567.2186.705.44919c.086.05716.17042.1154.255.17361l.03922.027q.3008.207.59435.42331ZM32.60558.07378l.00349.00039L32.6034.074Zm-.02129,0L32.58638.074,32.5808.07417Z"></path><polygon class="c" points="32.584 0.074 32.581 0.074 32.586 0.074 32.584 0.074"></polygon><polygon class="c" points="32.606 0.074 32.603 0.074 32.609 0.074 32.606 0.074"></polygon><path class="d" d="M46.505,13.64031c.1.07365.20009.147.29887.22218q.34831.26519.68563.54347c.06021.04948.12217.09686.18185.147q.42227.35406.82725.7276c.071.06531.13936.1332.20952.19939.14146.13351.28457.26546.42279.40241a4.12782,4.12782,0,0,0,.63453.5152c.078.05145.16371.08365.2443.1292a4.10319,4.10319,0,0,0,.4576.24058c.09739.0397.19992.05851.29944.09036a4.08344,4.08344,0,0,0,.44657.13282c.10925.02151.22047.02137.33073.03381a2.367,2.367,0,0,0,.87372.003c.108-.01152.21693-.01051.32387-.03089a3.97691,3.97691,0,0,0,.44046-.12832c.09909-.03106.20106-.04908.29792-.08813a3.9718,3.9718,0,0,0,.45664-.23884c.07806-.04411.16118-.07474.23675-.12457a3.99578,3.99578,0,0,0,.62676-.51136l.00009,0a4.009,4.009,0,0,0,.0226-5.62291c-.02321-.02418-.03909-.05258-.063-.07632-.089-.088-.18221-.1716-.27218-.2586q-.198-.19157-.3994-.3795-.34661-.32371-.70334-.63641c-.13133-.11554-.26178-.232-.395-.34535-.27173-.23115-.54879-.45594-.82821-.678-.10262-.08155-.20288-.16606-.30655-.24635q-.577-.44673-1.17412-.86774c-.08168-.05742-.16624-.11095-.24844-.16763-.31956-.22029-.64226-.4364-.97028-.645-.14346-.09132-.28962-.17858-.43465-.26759-.27392-.16811-.54976-.33334-.829-.49325q-.24189-.13836-.48658-.27209-.41388-.22723-.83545-.44185c-.16126-.08233-.32218-.16519-.48492-.24482-.3104-.15184-.62489-.29656-.941-.43836-.13456-.06043-.26746-.124-.40306-.18256-.45229-.19533-.90919-.38182-1.372-.55621-.06038-.02278-.12234-.04228-.183-.06466q-.60538-.22383-1.22176-.424c-.15935-.05153-.321-.09809-.48135-.14713-.31877-.09743-.63885-.19167-.96181-.27919-.181-.04905-.36318-.09534-.54556-.1412q-.4686-.11793-.94279-.22147c-.18325-.04014-.36651-.08037-.551-.11728-.33771-.06754-.67786-.1274-1.01932-.184-.16134-.02679-.32156-.05672-.48369-.081-.50272-.07535-1.00841-.14154-1.51855-.19276l-.02339-.00175v0c-.02129-.00214-.04311-.00275-.0644-.00485-.49687-.04851-.99654-.08743-1.4997-.11274q-.78746-.0398-1.58452-.04018-.797,0-1.58451.04018c-.50334.02531-1.00309.06427-1.5.11279-.02129.00209-.04294.0027-.06405.0048l-.00009,0-.0233.00175c-.56791.057-1.1297.13442-1.6881.22164-.10541.01645-.21109.032-.31606.04948q-.80409.1341-1.59421.30878c-.10087.0223-.20088.04673-.3014.07-.52986.12282-1.05589.25542-1.5751.40481l-.05157.014c-.52977.15341-1.052.32466-1.56995.50491-.1007.035-.20157.06946-.30184.1055-.43431.15615-.86582.31824-1.29114.49273-.02915.01195-.05463.028-.08325.04057A31.77656,31.77656,0,0,0,15.6176,6.07114l3.84568,3.84563.00008.00013,1.83235,1.83234.14669.14665A23.29755,23.29755,0,0,1,29.833,9.22769c.345-.04053.69383-.06767,1.04279-.09415.11082-.00842.22008-.02282.33134-.02971q.68863-.04262,1.38782-.04368.69924,0,1.38783.04368c.11484.00711.22741.0219.34172.03062.34539.0264.69086.0531,1.03232.0932.385.04525.76635.10249,1.14542.16615.11728.01972.23334.04271.35009.06414q.399.0733.79348.15925.19112.042.38108.08679.40158.09542.79758.20519c.10454.02876.20978.05546.31371.08561.36258.10519.722.21737,1.07709.33941.04921.01688.09712.03621.14608.05345q.46.16145.91093.34115c.11231.04472.22313.092.33448.13844q.361.15047.716.31214c.1151.05249.22977.10507.34391.15939q.37776.17991.74749.37366c.08482.0442.17095.08617.25516.13137q.48954.26263.96512.54692c.06807.04075.134.08425.20158.12566q.37357.229.73842.47061c.10367.06889.20576.13957.30821.21008Q46.19755,13.41383,46.505,13.64031Z"></path><path class="b" d="M65.11474,32.54493l.00122-.01248-.0021-.02089Z"></path><path class="b" d="M10.87522,48.13029l-3.3591,3.35914-.06867.06872a31.503,31.503,0,0,0,21.97548,12.4031l.03115.0031.00437,0,.00427,0a2.76757,2.76757,0,0,0,.457-.006c.09006-.00606.17876-.013.26646-.02749a2.75977,2.75977,0,0,0,.30852-.07251c.08364-.02391.16645-.04677.24691-.0781a2.80778,2.80778,0,0,0,.28478-.13482c.075-.03931.15018-.07623.22112-.12195a2.87667,2.87667,0,0,0,.25407-.19185c.06409-.05214.12989-.10079.18932-.15825a2.91992,2.91992,0,0,0,.21649-.24543c.0511-.062.10585-.11972.1518-.18591a2.91246,2.91246,0,0,0,.1716-.29866c.03582-.06741.07758-.13046.10816-.20092a2.90394,2.90394,0,0,0,.12064-.36864c.01781-.06305.044-.12208.0576-.18679a2.90767,2.90767,0,0,0,.06357-.59836V58.8514a2.89831,2.89831,0,0,0-2.60009-2.86907q-.07381-.00825-.14764-.01693c-.40325-.04738-.80256-.10724-1.19926-.17487-.1274-.02173-.253-.0483-.37959-.07208-.269-.05048-.5371-.10332-.80273-.16292-.1466-.0329-.29181-.06894-.43736-.10454q-.36834-.09019-.73231-.19128c-.1466-.041-.29268-.08281-.43806-.12658-.24469-.0736-.4871-.15227-.72847-.23364-.13474-.04547-.27-.0894-.40368-.13722-.27453-.09822-.54574-.20341-.81556-.31149-.09424-.03778-.19006-.07234-.28378-.1113q-.54189-.22541-1.07-.47654c-.078-.03709-.15359-.078-.23107-.11593-.27261-.13356-.5433-.27043-.80989-.41415-.12121-.06536-.24006-.13421-.36005-.20162-.22069-.124-.43989-.25019-.65621-.381-.12715-.077-.253-.15567-.37846-.23495q-.31127-.19647-.61573-.4025c-.12164-.08225-.24329-.16432-.36336-.24879-.21153-.14878-.41921-.30241-.6255-.45791-.10341-.07792-.20821-.15384-.31031-.23343q-.406-.31656-.79732-.65058c-.03255-.0278-.06658-.05376-.099-.08168q-.43824-.37744-.85623-.77673c-.08577-.08142-.16806-.16628-.25253-.249-.192-.18788-.38221-.37741-.56765-.5717-.099-.10376-.19555-.20983-.29277-.31537a23.76431,23.76431,0,0,1-2.15067-2.69747Z"></path><polygon class="c" points="32.584 65.119 32.586 65.119 32.581 65.119 32.584 65.119"></polygon><path class="e" d="M14.40919,6.8846A31.52271,31.52271,0,0,0,1.24149,29.35932c-.0048.04712-.00646.09507-.01108.14223l-.00472.00511c-.03586.36733-.05864.73837-.08229,1.10911-.00811.12671-.02146.252-.02809.37907q-.03979.76757-.04145,1.54468c-.00009.01859-.00157.03678-.00157.05537l.00008.00166-.00008.00166c0,.01858.00148.03682.00157.05537q.00144.777.04145,1.54468c.00654.12627.0198.25075.02792.37662.02365.37161.04651.7434.08246,1.11156l.00472.00515c.00471.04712.00628.09511.01117.14219a31.31312,31.31312,0,0,0,5.3623,14.546l5.65786-5.65786.12627-.12623a23.3747,23.3747,0,0,1-3.14443-9.213A23.63045,23.63045,0,0,1,9.06085,32.616l-.00061-.01942.00061-.01942A23.76777,23.76777,0,0,1,20.16714,12.64251L14.49305,6.96842Z"></path></svg>