<svg xmlns="http://www.w3.org/2000/svg" id="a" viewBox="0 0 403.6383 96.51259"><defs><style>.b{fill:#fff;}</style></defs><path class="b" d="m35.92432,23.45544l-11.24414,1.35303c-.34521-3.52246-1.77832-5.28369-4.29932-5.28369-3.64209,0-5.5166,3.8125-5.62451,11.4375,1.7207-2.70654,4.67822-4.05957,8.87305-4.05957,3.97949,0,7.21143,1.27832,9.6958,3.83398,2.48438,2.55664,3.72705,5.84277,3.72705,9.85938,0,4.20996-1.57373,7.77588-4.72021,10.69678-3.14697,2.92139-7.20117,4.38184-12.1626,4.38184-3.63037,0-6.86279-.875-9.69824-2.62598-2.83545-1.75049-4.97266-4.3335-6.41162-7.74854-1.43945-3.41553-2.15869-7.15283-2.15869-11.2124,0-6.91602,1.57861-12.60303,4.73633-17.06006,3.15723-4.45703,7.65723-6.68555,13.5-6.68555,4.14502,0,7.6626,1.1333,10.55176,3.39893,2.88867,2.2666,4.63379,5.50439,5.23535,9.71436Zm-16.15771,23.26221c1.48682,0,2.67188-.50439,3.55566-1.51416.8833-1.00977,1.32568-2.24463,1.32568-3.70557,0-1.43848-.43652-2.69531-1.30957-3.76953-.87305-1.07373-2.02051-1.61084-3.44238-1.61084-1.46582,0-2.67236.53174-3.62061,1.59473-.94873,1.06348-1.42236,2.33594-1.42236,3.81787,0,1.43945.45264,2.66357,1.35791,3.67334s2.09033,1.51416,3.55566,1.51416Z"></path><path class="b" d="m74.65186,44.20447l-.4834,10.79346h-33.50781v-10.1167l7.48633-5.25195c1.09717-.75146,3.146-2.36816,6.14746-4.84912,3.00098-2.48047,4.95898-4.38672,5.87305-5.71875.91406-1.33154,1.37109-2.72754,1.37109-4.18848,0-1.396-.39844-2.51807-1.1958-3.3667s-1.84277-1.27295-3.13525-1.27295c-3.2334,0-5.04346,2.53467-5.43115,7.604l-11.11572-2.15869c.81592-5.17627,2.84033-9.02637,6.07324-11.55078,3.23242-2.52344,7.05078-3.78564,11.4541-3.78564,4.76855,0,8.66162,1.27832,11.6792,3.83398,3.01758,2.55615,4.52686,5.96045,4.52686,10.21338,0,2.83545-.82129,5.53125-2.46436,8.08691-1.64355,2.55664-6.44971,6.46582-14.41846,11.72803h17.14062Z"></path><path d="m108.70752,38.53406h-14.3374v16.46387h-13.14551V11.01843h31.80029v10.47168h-18.65479v7.15234h14.3374v9.8916Z"></path><path d="m135.93262,55.67468c-6.18604,0-11.22803-2.05127-15.12695-6.15381-3.89844-4.10254-5.84766-9.59033-5.84766-16.46436,0-6.57275,1.86328-12.00146,5.59033-16.28662,3.72607-4.28516,8.89746-6.42773,15.51318-6.42773,6.12158,0,11.11035,2.01904,14.96582,6.05713,3.85547,4.03857,5.78369,9.42969,5.78369,16.17383,0,6.98145-1.94434,12.57666-5.83203,16.78662s-8.90332,6.31494-15.04639,6.31494Zm-.06445-9.98828c2.27686,0,3.91504-.99316,4.91357-2.97998.99902-1.98682,1.49805-5.62256,1.49805-10.90625,0-7.64648-2.05127-11.47021-6.15381-11.47021-4.4248,0-6.63721,4.36084-6.63721,13.08105,0,8.18359,2.12646,12.27539,6.37939,12.27539Z"></path><path d="m201.66016,54.99792h-14.96582l-6.42383-16.81836h-4.25684v16.81836h-13.5V11.01843h22.97266c5.06885,0,9.00488,1.1875,11.80811,3.56055,2.80322,2.37354,4.20459,5.50439,4.20459,9.3916,0,2.53516-.51562,4.77441-1.54639,6.71777-1.03125,1.94434-3.11475,3.65723-6.25049,5.13916l7.95801,19.17041Zm-25.64648-26.22656h5.76709c1.69678,0,3.06104-.35449,4.0918-1.06299,1.03125-.70898,1.54688-1.75049,1.54688-3.12549,0-2.81348-1.72949-4.2207-5.1875-4.2207h-6.21826v8.40918Z"></path><path d="m262.07129,11.01843l-11.66504,43.97949h-11.34131l-6.15234-24.26123-5.81006,24.26123h-11.82422l-11.68506-43.97949h12.70264l6.15186,25.31299,6.00146-25.31299h10.59863l6.52881,25.3623,6.16162-25.3623h10.33301Z"></path><path d="m288.48047,54.99792l-2.48535-8.66699h-11.78174l-2.64014,8.66699h-10.95996l13.57715-43.97949h14.27295l13.79346,43.97949h-13.77637Zm-11.97168-18.26807h7.11523l-3.55811-12.75781-3.55713,12.75781Z"></path><path d="m345.45459,54.99792h-14.96582l-6.42383-16.81836h-4.25684v16.81836h-13.5V11.01843h22.97266c5.06885,0,9.00488,1.1875,11.80811,3.56055,2.80322,2.37354,4.20459,5.50439,4.20459,9.3916,0,2.53516-.51562,4.77441-1.54639,6.71777-1.03125,1.94434-3.11475,3.65723-6.25049,5.13916l7.95801,19.17041Zm-25.64648-26.22656h5.76709c1.69678,0,3.06104-.35449,4.0918-1.06299,1.03125-.70898,1.54688-1.75049,1.54688-3.12549,0-2.81348-1.72949-4.2207-5.1875-4.2207h-6.21826v8.40918Z"></path><path d="m352.62237,33.20382c0-6.04256-.01154-12.08516.00276-18.12769.02027-8.56652,9.05712-13.8522,16.39002-9.40585,9.91121,6.00973,19.7334,12.17203,29.47938,18.44656,6.83609,4.4011,6.86609,13.82082.04329,18.22314-9.78408,6.31304-19.64714,12.51141-29.61485,18.5296-7.27044,4.38969-16.27448-.90733-16.29739-9.37906-.01648-6.09552-.00321-12.19113-.00322-18.2867Z"></path><path class="b" d="m4.30078,69.73034h3.03809l7.9375,17.73535,7.9375-17.73535h3.00781v21.45605h-2.82129v-15.99902l-7.13184,15.99902h-1.98438l-7.16211-16.03027v16.03027h-2.82129v-21.45605Z"></path><path class="b" d="m37.99902,73.91589c3.16211,0,5.33301,1.6123,6.3252,3.37988v-3.10059h2.85254v16.99121h-2.85254v-3.1626c-1.02344,1.82959-3.22461,3.44189-6.35645,3.44189-4.52686,0-8.03027-3.56592-8.03027-8.83691,0-5.30176,3.50342-8.71289,8.06152-8.71289Zm.55762,2.44971c-3.10059,0-5.73584,2.26318-5.73584,6.26318s2.63525,6.35645,5.73584,6.35645,5.76758-2.32568,5.76758-6.3252c0-3.93799-2.66699-6.29443-5.76758-6.29443Z"></path><path class="b" d="m64.38037,81.57458c0-3.47266-1.89111-5.23975-4.74365-5.23975-2.88379,0-4.86816,1.79785-4.86816,5.45703v9.39453h-2.82129v-16.99121h2.82129v2.41846c1.11621-1.76709,3.1626-2.72852,5.45703-2.72852,3.9375,0,6.94531,2.41846,6.94531,7.28662v10.01465h-2.79053v-9.61182Z"></path><path class="b" d="m78.82568,73.91589c2.6665,0,5.11572,1.36426,6.29443,3.31787v-8.9917h2.85254v22.94434h-2.85254v-3.19336c-1.02344,1.89111-3.22461,3.47266-6.3252,3.47266-4.55811,0-8.06152-3.56592-8.06152-8.83691,0-5.30176,3.50342-8.71289,8.09229-8.71289Zm.52686,2.44971c-3.10059,0-5.73584,2.26318-5.73584,6.26318s2.63525,6.35645,5.73584,6.35645,5.76758-2.32568,5.76758-6.3252c0-3.93799-2.66699-6.29443-5.76758-6.29443Z"></path><path class="b" d="m99.75,73.91589c3.16309,0,5.33301,1.6123,6.3252,3.37988v-3.10059h2.85254v16.99121h-2.85254v-3.1626c-1.02295,1.82959-3.22461,3.44189-6.35596,3.44189-4.52686,0-8.03076-3.56592-8.03076-8.83691,0-5.30176,3.50391-8.71289,8.06152-8.71289Zm.55859,2.44971c-3.10059,0-5.73633,2.26318-5.73633,6.26318s2.63574,6.35645,5.73633,6.35645,5.7666-2.32568,5.7666-6.3252c0-3.93799-2.66602-6.29443-5.7666-6.29443Z"></path><path class="b" d="m114.31934,76.52038h-2.20166v-2.3252h2.20166v-4.27881h2.82129v4.27881h4.43359v2.3252h-4.43359v10.01514c0,1.67432.62012,2.26318,2.35645,2.26318h2.07715v2.3877h-2.54199c-3.00781,0-4.71289-1.24023-4.71289-4.65088v-10.01514Z"></path><path class="b" d="m132.33105,91.4657c-4.83691,0-8.40234-3.41113-8.40234-8.80566,0-5.36426,3.44141-8.74414,8.40234-8.74414,4.92969,0,8.1543,3.47266,8.1543,8.12402,0,.62012-.03076,1.11621-.09277,1.70508h-13.58057c.21729,3.44141,2.63525,5.33301,5.51904,5.33301,2.54248,0,4.15479-1.30225,4.7749-3.13184h3.03857c-.86816,3.10059-3.59668,5.51953-7.81348,5.51953Zm-5.48828-10.01514h10.72852c.03076-3.31787-2.44971-5.14697-5.36426-5.14697-2.75977,0-5.05371,1.8291-5.36426,5.14697Z"></path><path class="b" d="m159.45605,82.16394h-4.15479v9.02246h-2.82178v-21.61133h6.97656c5.08496,0,7.47266,2.79102,7.47266,6.3252,0,3.28711-2.1084,6.26367-7.47266,6.26367Zm0-2.32568c3.22461,0,4.58887-1.51904,4.58887-3.93799,0-2.51123-1.36426-3.99951-4.58887-3.99951h-4.15479v7.9375h4.15479Z"></path><path class="b" d="m177.83887,91.4657c-4.80566,0-8.46484-3.41113-8.46484-8.80566,0-5.36426,3.7832-8.74414,8.58887-8.74414,4.83691,0,8.58887,3.37988,8.58887,8.74414,0,5.39453-3.87598,8.80566-8.71289,8.80566Zm0-2.48047c2.94531,0,5.8291-2.01562,5.8291-6.3252,0-4.2793-2.82129-6.29443-5.73633-6.29443-2.97656,0-5.67383,2.01514-5.67383,6.29443,0,4.30957,2.63574,6.3252,5.58105,6.3252Z"></path><path class="b" d="m193.08984,91.1864h-2.82129v-16.99121h2.82129v2.75977c.96094-1.8916,2.79053-3.06982,5.48828-3.06982v2.91455h-.74414c-2.69775,0-4.74414,1.20898-4.74414,5.14697v9.23975Z"></path><path class="b" d="m202.45117,76.52038h-2.20166v-2.3252h2.20166v-4.27881h2.82129v4.27881h4.43359v2.3252h-4.43359v10.01514c0,1.67432.62012,2.26318,2.35645,2.26318h2.07715v2.3877h-2.54199c-3.00781,0-4.71289-1.24023-4.71289-4.65088v-10.01514Z"></path><path class="b" d="m220.12207,73.91589c3.16309,0,5.33301,1.6123,6.3252,3.37988v-3.10059h2.85254v16.99121h-2.85254v-3.1626c-1.02295,1.82959-3.22461,3.44189-6.35596,3.44189-4.52686,0-8.03076-3.56592-8.03076-8.83691,0-5.30176,3.50391-8.71289,8.06152-8.71289Zm.55859,2.44971c-3.10059,0-5.73633,2.26318-5.73633,6.26318s2.63574,6.35645,5.73633,6.35645,5.7666-2.32568,5.7666-6.3252c0-3.93799-2.66602-6.29443-5.7666-6.29443Z"></path><path class="b" d="m234.07031,68.24206h2.82178v22.94434h-2.82178v-22.94434Z"></path></svg>